<?xml version="1.0" encoding="UTF-8"?>
<svg version="1.1" xmlns="http://www.w3.org/2000/svg" width="300" height="280">
<path d="M0 0 C99 0 198 0 300 0 C300 92.4 300 184.8 300 280 C201 280 102 280 0 280 C0 187.6 0 95.2 0 0 Z " fill="#FDFDFD" transform="translate(0,0)"/>
<path d="M0 0 C28.44839171 0 49.57642319 1.1930036 70.0625 20.4375 C83.77076905 35.27068426 88.71118072 52.50741599 88.21875 72.28515625 C87.61039742 87.71601943 81.96254371 101.96143687 71.6875 113.625 C70.3571875 114.800625 70.3571875 114.800625 69 116 C67.95585937 117.03060547 67.95585937 117.03060547 66.890625 118.08203125 C60.81430231 123.91646212 54.71086743 127.66776744 47 131 C45.60974609 131.60328125 45.60974609 131.60328125 44.19140625 132.21875 C29.14566476 138.47849386 18.94796291 136 0 136 C0 91.12 0 46.24 0 0 Z " fill="#020202" transform="translate(176,65)"/>
<path d="M0 0 C36.63 0 73.26 0 111 0 C111 44.88 111 89.76 111 136 C110.34 136 109.68 136 109 136 C107.81149144 134.50674566 106.7013947 132.95098717 105.625 131.375 C102.29966342 126.67720632 98.77570669 122.28000689 95 117.9375 C90.9584462 113.28249049 87.00924273 108.58574756 83.18359375 103.75 C80.35538529 100.18817754 77.4923185 96.655373 74.625 93.125 C74.06611084 92.43672119 73.50722168 91.74844238 72.93139648 91.03930664 C69.52640447 86.85413786 66.08989595 82.69819135 62.625 78.5625 C59.25148441 74.53166494 55.97997992 70.44453858 52.77734375 66.27734375 C49.9881998 62.7035615 47.09162972 59.21884021 44.2109375 55.71875 C41.58052777 52.48418256 39.03249971 49.19246339 36.5078125 45.875 C35.08727295 44.03121786 35.08727295 44.03121786 33.62890625 42.6640625 C31.11655088 40.09748363 29.00234943 37.21532586 26.8125 34.375 C23.02182563 29.50082974 19.13010988 24.79497692 14.9765625 20.22265625 C11.16868864 15.94067952 7.59543579 11.46050305 4 7 C3.25234375 6.10796875 2.5046875 5.2159375 1.734375 4.296875 C0 2 0 2 0 0 Z " fill="#050505" transform="translate(32,65)"/>
<path d="M0 0 C2.00720923 0.28674418 4.0085944 0.61866701 6 1 C6 2.65 6 4.3 6 6 C10.29 6 14.58 6 19 6 C19.495 7.485 19.495 7.485 20 9 C20.66 9 21.32 9 22 9 C22.33 8.01 22.66 7.02 23 6 C23.66 6 24.32 6 25 6 C25.33 4.35 25.66 2.7 26 1 C30.93270529 -0.6442351 33.54024193 0.81384408 38 3 C38 3.99 38 4.98 38 6 C50.87 6 63.74 6 77 6 C77 6.99 77 7.98 77 9 C77.55218201 8.51202438 78.10436401 8.02404877 78.67327881 7.52128601 C81.45698536 5.70120811 82.92927715 5.63540736 86.22753906 5.65942383 C87.26831604 5.65965042 88.30909302 5.65987701 89.38140869 5.66011047 C90.49820007 5.67559433 91.61499146 5.69107819 92.765625 5.70703125 C94.48842682 5.71339851 94.48842682 5.71339851 96.24603271 5.71989441 C99.9142603 5.73668667 103.58193847 5.77434102 107.25 5.8125 C109.73697123 5.82754608 112.22395108 5.84123461 114.7109375 5.85351562 C120.80747912 5.88659204 126.90370031 5.93679744 133 6 C133 6.99 133 7.98 133 9 C132.01 9 131.02 9 130 9 C130 12.3 130 15.6 130 19 C129.34 19 128.68 19 128 19 C128 17.02 128 15.04 128 13 C127.01 13 126.02 13 125 13 C125 13.99 125 14.98 125 16 C123.02 15.505 123.02 15.505 121 15 C121 13.68 121 12.36 121 11 C123.31 11 125.62 11 128 11 C128 10.34 128 9.68 128 9 C125.03 9 122.06 9 119 9 C119 12.3 119 15.6 119 19 C118.34 19 117.68 19 117 19 C117 15.7 117 12.4 117 9 C116.34 9 115.68 9 115 9 C115 12.96 115 16.92 115 21 C114.01 20.67 113.02 20.34 112 20 C112.33 21.32 112.66 22.64 113 24 C111.68 23.67 110.36 23.34 109 23 C109 23.99 109 24.98 109 26 C110.4800841 25.88637738 111.95910074 25.75877092 113.4375 25.625 C114.26121094 25.55539063 115.08492187 25.48578125 115.93359375 25.4140625 C116.61550781 25.27742188 117.29742187 25.14078125 118 25 C118.33 24.34 118.66 23.68 119 23 C120.98 23.33 122.96 23.66 125 24 C125 24.33 125 24.66 125 25 C123.35 25.33 121.7 25.66 120 26 C121.98 26.33 123.96 26.66 126 27 C126 27.66 126 28.32 126 29 C124.68 29 123.36 29 122 29 C122 29.66 122 30.32 122 31 C123.32 31 124.64 31 126 31 C126 31.99 126 32.98 126 34 C124.35 34 122.7 34 121 34 C121 34.66 121 35.32 121 36 C122.65 36 124.3 36 126 36 C126 36.99 126 37.98 126 39 C123.66705225 39.04241723 121.33297433 39.04092937 119 39 C118 38 118 38 117.90234375 35.93359375 C117.91974609 34.69802734 117.91974609 34.69802734 117.9375 33.4375 C117.94652344 32.61121094 117.95554688 31.78492188 117.96484375 30.93359375 C117.98224609 29.97646484 117.98224609 29.97646484 118 29 C117.01 29 116.02 29 115 29 C115 32.3 115 35.6 115 39 C114.01 39 113.02 39 112 39 C112 35.7 112 32.4 112 29 C111.01 29 110.02 29 109 29 C109.04125 30.11375 109.0825 31.2275 109.125 32.375 C109 36 109 36 107 38 C104 38.25 104 38.25 101 38 C99 36 99 36 98.8046875 33.8359375 C98.82789063 33.02382812 98.85109375 32.21171875 98.875 31.375 C98.89304687 30.55773437 98.91109375 29.74046875 98.9296875 28.8984375 C98.95289063 28.27195313 98.97609375 27.64546875 99 27 C100.32 27 101.64 27 103 27 C103 28.32 103 29.64 103 31 C103.66 31 104.32 31 105 31 C104.67 30.071875 104.34 29.14375 104 28.1875 C103 25 103 25 103 22 C101.68 22 100.36 22 99 22 C98.896875 21.4225 98.79375 20.845 98.6875 20.25 C98.11076107 17.90012053 98.11076107 17.90012053 96.4375 15.9375 C95 14 95 14 95 11 C96.32 11.33 97.64 11.66 99 12 C99 11.01 99 10.02 99 9 C97.02 9 95.04 9 93 9 C93 12.3 93 15.6 93 19 C92.34 19 91.68 19 91 19 C91 17.35 91 15.7 91 14 C89.02 14 87.04 14 85 14 C85 14.66 85 15.32 85 16 C86.485 16.495 86.485 16.495 88 17 C88 17.66 88 18.32 88 19 C87.34 19 86.68 19 86 19 C86.04125 19.78375 86.0825 20.5675 86.125 21.375 C86 24 86 24 84 26 C90.93 26.495 90.93 26.495 98 27 C98 27.66 98 28.32 98 29 C97.01 29 96.02 29 95 29 C95 31.97 95 34.94 95 38 C94.34 38 93.68 38 93 38 C93 35.03 93 32.06 93 29 C91.68 29 90.36 29 89 29 C89 32.3 89 35.6 89 39 C88.01 39 87.02 39 86 39 C86 35.7 86 32.4 86 29 C84.68 29 83.36 29 82 29 C82 31.97 82 34.94 82 38 C81.01 38 80.02 38 79 38 C79 36.68 79 35.36 79 34 C78.34 34 77.68 34 77 34 C77 34.99 77 35.98 77 37 C73.62416252 39.25055832 72.81640641 39.20667458 68.9375 38.8125 C68.05964844 38.73644531 67.18179688 38.66039062 66.27734375 38.58203125 C64 38 64 38 62 35 C61.34 36.32 60.68 37.64 60 39 C58.02 39 56.04 39 54 39 C54 35.04 54 31.08 54 27 C57.3125 26.6875 57.3125 26.6875 61 27 C62.9375 29.5 62.9375 29.5 64 32 C64.69096471 28.01600042 64.69096471 28.01600042 65 24 C64.34 24 63.68 24 63 24 C64 21 64 21 66.0625 19.8125 C66.701875 19.544375 67.34125 19.27625 68 19 C67.01 18.01 67.01 18.01 66 17 C67.98 16.34 69.96 15.68 72 15 C72 14.34 72 13.68 72 13 C71.01 13.66 70.02 14.32 69 15 C66.8125 14.625 66.8125 14.625 65 14 C65 13.01 65 12.02 65 11 C67.31 11 69.62 11 72 11 C72 10.34 72 9.68 72 9 C69.36 9 66.72 9 64 9 C64 9.66 64 10.32 64 11 C62.35 11 60.7 11 59 11 C59 11.66 59 12.32 59 13 C60.65 13.33 62.3 13.66 64 14 C64 15.65 64 17.3 64 19 C63.34 19 62.68 19 62 19 C62 19.99 62 20.98 62 22 C60 21 58 20 56 19 C56 18.01 56 17.02 56 16 C58.16874252 16.50603992 59.99967627 16.99983813 62 18 C62 17.01 62 16.02 62 15 C60.35 14.67 58.7 14.34 57 14 C57 12.68 57 11.36 57 10 C56.01 9.505 56.01 9.505 55 9 C55 12.3 55 15.6 55 19 C54.01 19 53.02 19 52 19 C52 15.7 52 12.4 52 9 C51.01 9 50.02 9 49 9 C49 12.3 49 15.6 49 19 C48.34 19 47.68 19 47 19 C46.505 17.515 46.505 17.515 46 16 C45.67 16.66 45.34 17.32 45 18 C43.68 18 42.36 18 41 18 C38.8480563 14.77208445 38.79913557 13.71599191 39 10 C39.66 10 40.32 10 41 10 C41.495 12.97 41.495 12.97 42 16 C42.66 16 43.32 16 44 16 C43.505 13.525 43.505 13.525 43 11 C44.32 11 45.64 11 47 11 C47 10.34 47 9.68 47 9 C43.7 9 40.4 9 37 9 C37 9.66 37 10.32 37 11 C35.68 11 34.36 11 33 11 C33 11.66 33 12.32 33 13 C34.32 13 35.64 13 37 13 C37.495 15.97 37.495 15.97 38 19 C39.32 19 40.64 19 42 19 C42 19.66 42 20.32 42 21 C38.7 21 35.4 21 32 21 C32 22.65 32 24.3 32 26 C36.65473753 28.01285947 38.97430986 28.25642253 44 27 C44 30.3 44 33.6 44 37 C45.65 37 47.3 37 49 37 C49 37.66 49 38.32 49 39 C45.37 39 41.74 39 38 39 C38 38.01 38 37.02 38 36 C36.35 36 34.7 36 33 36 C32.67 36.99 32.34 37.98 32 39 C27.71 39 23.42 39 19 39 C17.63557692 26.47211538 17.63557692 26.47211538 19.48046875 24.08203125 C19.98191406 23.72496094 20.48335937 23.36789063 21 23 C19.85930004 21.76905152 19.85930004 21.76905152 17.4375 20.5625 C16.633125 20.046875 15.82875 19.53125 15 19 C15 18.34 15 17.68 15 17 C14.21625 17.04125 13.4325 17.0825 12.625 17.125 C10 17 10 17 8 15 C8 13.68 8 12.36 8 11 C8.66 11 9.32 11 10 11 C10 10.34 10 9.68 10 9 C8.68 9 7.36 9 6 9 C6 12.3 6 15.6 6 19 C5.01 19 4.02 19 3 19 C3 18.34 3 17.68 3 17 C1.68 17.99 0.36 18.98 -1 20 C0.32 20.66 1.64 21.32 3 22 C3 22.66 3 23.32 3 24 C0.69 23.67 -1.62 23.34 -4 23 C-4.33 23.66 -4.66 24.32 -5 25 C-1.37 25.66 2.26 26.32 6 27 C6 30.96 6 34.92 6 39 C5.01 39 4.02 39 3 39 C3 35.7 3 32.4 3 29 C1.68 29 0.36 29 -1 29 C-1 31.97 -1 34.94 -1 38 C-1.99 38 -2.98 38 -4 38 C-4 37.34 -4 36.68 -4 36 C-4.66 36 -5.32 36 -6 36 C-6 37.32 -6 38.64 -6 40 C-6.99 40 -7.98 40 -9 40 C-9.33 38.68 -9.66 37.36 -10 36 C-10.70125 36.33 -11.4025 36.66 -12.125 37 C-15.39216358 38.13640472 -17.57168185 38.52170059 -21 38 C-22.875 35.5 -22.875 35.5 -24 33 C-24.33 34.98 -24.66 36.96 -25 39 C-25.99 39 -26.98 39 -28 39 C-28 35.04 -28 31.08 -28 27 C-26.68 27 -25.36 27 -24 27 C-23.34 28.32 -22.68 29.64 -22 31 C-22 30.30132812 -22 29.60265625 -22 28.8828125 C-22 25.58854167 -22 22.29427083 -22 19 C-22.825 18.195625 -23.65 17.39125 -24.5 16.5625 C-27 14 -27 14 -27 11 C-26.01 11 -25.02 11 -24 11 C-23.67 10.01 -23.34 9.02 -23 8 C-24.32 7.67 -25.64 7.34 -27 7 C-18.75 7 -10.5 7 -2 7 C-2 7.33 -2 7.66 -2 8 C-4.64 8 -7.28 8 -10 8 C-10 8.66 -10 9.32 -10 10 C-7.36 10 -4.72 10 -2 10 C-1.67 10.66 -1.34 11.32 -1 12 C-1.99 12.33 -2.98 12.66 -4 13 C-4 13.99 -4 14.98 -4 16 C-0.535 15.505 -0.535 15.505 3 15 C3 12.69 3 10.38 3 8 C2.01 7.67 1.02 7.34 0 7 C0.99 7 1.98 7 3 7 C3 5.68 3 4.36 3 3 C2.01 3 1.02 3 0 3 C0 3.66 0 4.32 0 5 C-0.66 5 -1.32 5 -2 5 C-1.125 1.125 -1.125 1.125 0 0 Z M18 27 C18.05399736 28.45792884 18.09279177 29.91642712 18.125 31.375 C18.14820312 32.18710938 18.17140625 32.99921875 18.1953125 33.8359375 C18 36 18 36 16 38 C12.5 38.25 12.5 38.25 9 38 C7 36 7 36 6.6875 33.0625 C7 30 7 30 8 28.125 C11.25313684 26.29511053 14.31390109 26.81871645 18 27 Z " fill="#F3F3F3" transform="translate(56,219)"/>
<path d="M0 0 C7.17658791 4.44948451 12.40266513 8.98761592 14.8125 17.3125 C15.68660222 24.65495868 15.82007758 31.36228553 11.19921875 37.4921875 C5.68003957 43.89258016 0.51826864 48.25330809 -8.1015625 49.17578125 C-15.5840599 49.40732433 -22.12254075 48.12567967 -27.953125 43.171875 C-33.47200035 37.28198282 -35.95061848 31.60305511 -36.3125 23.5625 C-36.07917332 16.82402562 -34.52763986 10.98521388 -30.0390625 5.828125 C-22.13655264 -1.49910636 -10.33195105 -3.86553365 0 0 Z " fill="#040404" transform="translate(169.875,14.0625)"/>
<path d="M0 0 C2.00720923 0.28674418 4.0085944 0.61866701 6 1 C6 2.65 6 4.3 6 6 C10.29 6 14.58 6 19 6 C19 6.99 19 7.98 19 9 C18.34 9 17.68 9 17 9 C17 12.3 17 15.6 17 19 C16.34 19 15.68 19 15 19 C15 18.34 15 17.68 15 17 C14.21625 17.04125 13.4325 17.0825 12.625 17.125 C10 17 10 17 8 15 C8 13.68 8 12.36 8 11 C8.66 11 9.32 11 10 11 C10 10.34 10 9.68 10 9 C8.68 9 7.36 9 6 9 C6 12.3 6 15.6 6 19 C5.01 19 4.02 19 3 19 C3 18.34 3 17.68 3 17 C1.68 17.99 0.36 18.98 -1 20 C0.32 20.66 1.64 21.32 3 22 C3 22.66 3 23.32 3 24 C0.69 23.67 -1.62 23.34 -4 23 C-4.33 23.66 -4.66 24.32 -5 25 C-1.37 25.66 2.26 26.32 6 27 C6 30.96 6 34.92 6 39 C5.01 39 4.02 39 3 39 C3 35.7 3 32.4 3 29 C1.68 29 0.36 29 -1 29 C-1 31.97 -1 34.94 -1 38 C-1.99 38 -2.98 38 -4 38 C-4 37.34 -4 36.68 -4 36 C-4.66 36 -5.32 36 -6 36 C-6 37.32 -6 38.64 -6 40 C-6.99 40 -7.98 40 -9 40 C-9.33 38.68 -9.66 37.36 -10 36 C-10.70125 36.33 -11.4025 36.66 -12.125 37 C-15.39216358 38.13640472 -17.57168185 38.52170059 -21 38 C-22.875 35.5 -22.875 35.5 -24 33 C-24.33 34.98 -24.66 36.96 -25 39 C-25.99 39 -26.98 39 -28 39 C-28 35.04 -28 31.08 -28 27 C-26.68 27 -25.36 27 -24 27 C-23.34 28.32 -22.68 29.64 -22 31 C-22 30.30132812 -22 29.60265625 -22 28.8828125 C-22 25.58854167 -22 22.29427083 -22 19 C-22.825 18.195625 -23.65 17.39125 -24.5 16.5625 C-27 14 -27 14 -27 11 C-26.01 11 -25.02 11 -24 11 C-23.67 10.01 -23.34 9.02 -23 8 C-24.32 7.67 -25.64 7.34 -27 7 C-18.75 7 -10.5 7 -2 7 C-2 7.33 -2 7.66 -2 8 C-4.64 8 -7.28 8 -10 8 C-10 8.66 -10 9.32 -10 10 C-7.36 10 -4.72 10 -2 10 C-1.67 10.66 -1.34 11.32 -1 12 C-1.99 12.33 -2.98 12.66 -4 13 C-4 13.99 -4 14.98 -4 16 C-0.535 15.505 -0.535 15.505 3 15 C3 12.69 3 10.38 3 8 C2.01 7.67 1.02 7.34 0 7 C0.99 7 1.98 7 3 7 C3 5.68 3 4.36 3 3 C2.01 3 1.02 3 0 3 C0 3.66 0 4.32 0 5 C-0.66 5 -1.32 5 -2 5 C-1.125 1.125 -1.125 1.125 0 0 Z " fill="#ECECEC" transform="translate(56,219)"/>
<path d="M0 0 C17.16 0 34.32 0 52 0 C52 0.99 52 1.98 52 3 C51.01 3 50.02 3 49 3 C49 6.3 49 9.6 49 13 C48.34 13 47.68 13 47 13 C47 11.02 47 9.04 47 7 C46.01 7 45.02 7 44 7 C44 7.99 44 8.98 44 10 C42.68 9.67 41.36 9.34 40 9 C40 7.68 40 6.36 40 5 C42.31 5 44.62 5 47 5 C47 4.34 47 3.68 47 3 C44.03 3 41.06 3 38 3 C38 6.3 38 9.6 38 13 C37.34 13 36.68 13 36 13 C36 9.7 36 6.4 36 3 C35.34 3 34.68 3 34 3 C34 6.96 34 10.92 34 15 C33.01 14.67 32.02 14.34 31 14 C31.33 15.32 31.66 16.64 32 18 C30.68 17.67 29.36 17.34 28 17 C28 17.99 28 18.98 28 20 C29.4800841 19.88637738 30.95910074 19.75877092 32.4375 19.625 C33.26121094 19.55539063 34.08492187 19.48578125 34.93359375 19.4140625 C35.61550781 19.27742188 36.29742187 19.14078125 37 19 C37.33 18.34 37.66 17.68 38 17 C39.98 17.33 41.96 17.66 44 18 C44 18.33 44 18.66 44 19 C42.35 19.33 40.7 19.66 39 20 C40.98 20.33 42.96 20.66 45 21 C45 21.66 45 22.32 45 23 C43.68 23 42.36 23 41 23 C41 23.66 41 24.32 41 25 C42.32 25 43.64 25 45 25 C45 25.99 45 26.98 45 28 C43.35 28 41.7 28 40 28 C40 28.66 40 29.32 40 30 C41.65 30 43.3 30 45 30 C45 30.99 45 31.98 45 33 C42.66705225 33.04241723 40.33297433 33.04092937 38 33 C37 32 37 32 36.90234375 29.93359375 C36.91394531 29.10988281 36.92554688 28.28617188 36.9375 27.4375 C36.94652344 26.61121094 36.95554688 25.78492188 36.96484375 24.93359375 C36.97644531 24.29550781 36.98804688 23.65742188 37 23 C36.01 23 35.02 23 34 23 C34 26.3 34 29.6 34 33 C33.01 33 32.02 33 31 33 C31 29.7 31 26.4 31 23 C30.01 23 29.02 23 28 23 C28.04125 24.11375 28.0825 25.2275 28.125 26.375 C28 30 28 30 26 32 C23 32.25 23 32.25 20 32 C18 30 18 30 17.8046875 27.8359375 C17.82789063 27.02382812 17.85109375 26.21171875 17.875 25.375 C17.89304688 24.55773437 17.91109375 23.74046875 17.9296875 22.8984375 C17.95289063 22.27195313 17.97609375 21.64546875 18 21 C19.32 21 20.64 21 22 21 C22 22.32 22 23.64 22 25 C22.66 25 23.32 25 24 25 C23.67 24.071875 23.34 23.14375 23 22.1875 C22 19 22 19 22 16 C20.68 16 19.36 16 18 16 C17.896875 15.4225 17.79375 14.845 17.6875 14.25 C17.11076107 11.90012053 17.11076107 11.90012053 15.4375 9.9375 C14 8 14 8 14 5 C15.32 5.33 16.64 5.66 18 6 C18 5.01 18 4.02 18 3 C16.02 3 14.04 3 12 3 C12 6.3 12 9.6 12 13 C11.34 13 10.68 13 10 13 C10 11.35 10 9.7 10 8 C8.02 8 6.04 8 4 8 C4 8.66 4 9.32 4 10 C4.99 10.33 5.98 10.66 7 11 C7 11.66 7 12.32 7 13 C4.24542282 12.62005832 3.17979426 12.1926367 1.25 10.125 C0 8 0 8 0 5 C0.66 5 1.32 5 2 5 C2 5.66 2 6.32 2 7 C4.64 6.67 7.28 6.34 10 6 C10 5.01 10 4.02 10 3 C8.68 3 7.36 3 6 3 C5.67 3.66 5.34 4.32 5 5 C4.67 4.34 4.34 3.68 4 3 C1.97536745 2.34786708 1.97536745 2.34786708 0 2 C0 1.34 0 0.68 0 0 Z " fill="#121212" transform="translate(137,225)"/>
<path d="M0 0 C0.33 0.66 0.66 1.32 1 2 C1.66 2 2.32 2 3 2 C3.33 1.34 3.66 0.68 4 0 C4 0.66 4 1.32 4 2 C4.66 2 5.32 2 6 2 C6 5.3 6 8.6 6 12 C6.66 12 7.32 12 8 12 C8 8.7 8 5.4 8 2 C9.65 2 11.3 2 13 2 C12.01 2.495 12.01 2.495 11 3 C11.33 4.32 11.66 5.64 12 7 C13.32 7.33 14.64 7.66 16 8 C16 8.66 16 9.32 16 10 C13.03 9.505 13.03 9.505 10 9 C10 9.99 10 10.98 10 12 C10.60328125 11.91621094 11.2065625 11.83242187 11.828125 11.74609375 C12.62734375 11.64425781 13.4265625 11.54242188 14.25 11.4375 C15.03890625 11.33308594 15.8278125 11.22867188 16.640625 11.12109375 C19.00532874 10.99972651 20.7511037 11.30366743 23 12 C23 12.66 23 13.32 23 14 C19.7 14 16.4 14 13 14 C13 15.65 13 17.3 13 19 C17.65473753 21.01285947 19.97430986 21.25642253 25 20 C25 23.3 25 26.6 25 30 C26.65 30 28.3 30 30 30 C30 30.66 30 31.32 30 32 C26.37 32 22.74 32 19 32 C19 31.01 19 30.02 19 29 C17.35 29 15.7 29 14 29 C13.67 29.99 13.34 30.98 13 32 C8.71 32 4.42 32 0 32 C-1.36442308 19.47211538 -1.36442308 19.47211538 0.48046875 17.08203125 C1.23263672 16.54642578 1.23263672 16.54642578 2 16 C0.91739028 14.83556035 0.91739028 14.83556035 -1.078125 13.76171875 C-3 12 -3 12 -3.171875 9.51953125 C-3.03265625 8.62621094 -2.8934375 7.73289063 -2.75 6.8125 C-2.62109375 5.91144531 -2.4921875 5.01039063 -2.359375 4.08203125 C-2.24078125 3.39496094 -2.1221875 2.70789063 -2 2 C-1.34 2 -0.68 2 0 2 C0 1.34 0 0.68 0 0 Z M-1 20 C-0.94600264 21.45792884 -0.90720823 22.91642712 -0.875 24.375 C-0.85179688 25.18710938 -0.82859375 25.99921875 -0.8046875 26.8359375 C-1 29 -1 29 -3 31 C-6.5 31.25 -6.5 31.25 -10 31 C-12 29 -12 29 -12.3125 26.0625 C-12 23 -12 23 -11 21.125 C-7.74686316 19.29511053 -4.68609891 19.81871645 -1 20 Z " fill="#E2E2E2" transform="translate(75,226)"/>
<path d="M0 0 C3.3 0 6.6 0 10 0 C10 0.66 10 1.32 10 2 C8.68 2 7.36 2 6 2 C6.33 3.65 6.66 5.3 7 7 C6.34 7 5.68 7 5 7 C4.67 5.02 4.34 3.04 4 1 C3.34 1 2.68 1 2 1 C2.66 3.64 3.32 6.28 4 9 C5.32 9 6.64 9 8 9 C8.33 7.35 8.66 5.7 9 4 C9.33 4 9.66 4 10 4 C10 5.98 10 7.96 10 10 C10.66 10 11.32 10 12 10 C12 6.7 12 3.4 12 0 C12.99 0 13.98 0 15 0 C15 3.3 15 6.6 15 10 C15.99 10 16.98 10 18 10 C18 6.7 18 3.4 18 0 C19.65 0 21.3 0 23 0 C22.01 0.33 21.02 0.66 20 1 C20 2.32 20 3.64 20 5 C22.475 5.495 22.475 5.495 25 6 C25 6.99 25 7.98 25 9 C23.02 8.34 21.04 7.68 19 7 C19 7.99 19 8.98 19 10 C19.928125 10.4640625 19.928125 10.4640625 20.875 10.9375 C22.25 11.625 23.625 12.3125 25 13 C25 12.01 25 11.02 25 10 C25.66 10 26.32 10 27 10 C26.505 7.525 26.505 7.525 26 5 C24.68 4.67 23.36 4.34 22 4 C22 3.34 22 2.68 22 2 C23.65 2 25.3 2 27 2 C27 1.34 27 0.68 27 0 C29.64 0 32.28 0 35 0 C35 0.66 35 1.32 35 2 C32.69 2 30.38 2 28 2 C28.495 3.485 28.495 3.485 29 5 C30.98 4.67 32.96 4.34 35 4 C35 4.66 35 5.32 35 6 C33 7.625 33 7.625 31 9 C31.495 9.99 31.495 9.99 32 11 C31.195625 11.28875 30.39125 11.5775 29.5625 11.875 C26.8673532 12.73262568 26.8673532 12.73262568 26 15 C26.66 15 27.32 15 28 15 C28 14.34 28 13.68 28 13 C30 14 30 14 31 16 C30.01 16 29.02 16 28 16 C28 18.64 28 21.28 28 24 C26.29159719 22.36587557 25.06546953 21.13093906 24 19 C21.67843403 18.59270772 19.3431213 18.25561323 17 18 C17 21.63 17 25.26 17 29 C16.34 29 15.68 29 15 29 C14.67 28.34 14.34 27.68 14 27 C13.34 27.66 12.68 28.32 12 29 C9.375 28.625 9.375 28.625 7 28 C7 24.7 7 21.4 7 18 C6.01 18 5.02 18 4 18 C3.34 19.32 2.68 20.64 2 22 C1.4121875 21.319375 1.4121875 21.319375 0.8125 20.625 C-1.30832487 18.72357081 -3.33042235 17.93795972 -6 17 C-6.042721 15.33388095 -6.04063832 13.66617115 -6 12 C-5.67 11.67 -5.34 11.34 -5 11 C-3.30858344 11.08963062 -1.62040398 11.24577676 0.0625 11.4375 C0.98160156 11.53933594 1.90070313 11.64117187 2.84765625 11.74609375 C3.55792969 11.82988281 4.26820312 11.91367188 5 12 C5 11.34 5 10.68 5 10 C3.68 10 2.36 10 1 10 C0.67 8.02 0.34 6.04 0 4 C-1.32 4 -2.64 4 -4 4 C-4 3.34 -4 2.68 -4 2 C-2.68 2 -1.36 2 0 2 C0 1.34 0 0.68 0 0 Z " fill="#E8E8E8" transform="translate(93,228)"/>
<path d="M0 0 C4.23169259 0.37615045 6.8083482 1.17661571 10 4 C9.67 4.66 9.34 5.32 9 6 C6.03 5.01 3.06 4.02 0 3 C0 4.32 0 5.64 0 7 C16.17 7 32.34 7 49 7 C48.67 10.96 48.34 14.92 48 19 C47.01 19 46.02 19 45 19 C45 17.02 45 15.04 45 13 C44.01 13.66 43.02 14.32 42 15 C39.8125 14.625 39.8125 14.625 38 14 C38 13.01 38 12.02 38 11 C40.31 11 42.62 11 45 11 C45 10.34 45 9.68 45 9 C42.36 9 39.72 9 37 9 C37 9.66 37 10.32 37 11 C35.35 11 33.7 11 32 11 C32 11.66 32 12.32 32 13 C34.475 13.495 34.475 13.495 37 14 C37 15.65 37 17.3 37 19 C36.34 19 35.68 19 35 19 C35 19.99 35 20.98 35 22 C33 21 31 20 29 19 C29 18.01 29 17.02 29 16 C31.16874252 16.50603992 32.99967627 16.99983813 35 18 C35 17.01 35 16.02 35 15 C32.525 14.505 32.525 14.505 30 14 C30 12.68 30 11.36 30 10 C29.34 9.67 28.68 9.34 28 9 C28 12.3 28 15.6 28 19 C27.01 19 26.02 19 25 19 C25 15.7 25 12.4 25 9 C24.01 9 23.02 9 22 9 C22 12.3 22 15.6 22 19 C21.34 19 20.68 19 20 19 C19.67 18.01 19.34 17.02 19 16 C18.67 16.66 18.34 17.32 18 18 C16.68 18 15.36 18 14 18 C11.8480563 14.77208445 11.79913557 13.71599191 12 10 C12.66 10 13.32 10 14 10 C14.33 11.98 14.66 13.96 15 16 C15.66 16 16.32 16 17 16 C16.67 14.35 16.34 12.7 16 11 C17.32 11 18.64 11 20 11 C20 10.34 20 9.68 20 9 C16.7 9 13.4 9 10 9 C10 9.66 10 10.32 10 11 C8.68 11 7.36 11 6 11 C6 11.66 6 12.32 6 13 C7.32 13 8.64 13 10 13 C10.38218767 14.65614657 10.71395102 16.32457024 11 18 C10 19 10 19 8.15234375 19.09765625 C6.1015625 19.06510417 4.05078125 19.03255208 2 19 C2 18.01 2 17.02 2 16 C3.98 16.33 5.96 16.66 8 17 C8 16.34 8 15.68 8 15 C6.35 14.67 4.7 14.34 3 14 C3 12.68 3 11.36 3 10 C2.01 9.67 1.02 9.34 0 9 C0 12.3 0 15.6 0 19 C-0.66 19 -1.32 19 -2 19 C-2 15.7 -2 12.4 -2 9 C-2.66 9 -3.32 9 -4 9 C-4 8.01 -4 7.02 -4 6 C-3.34 6 -2.68 6 -2 6 C-1.855625 5.195625 -1.71125 4.39125 -1.5625 3.5625 C-1 1 -1 1 0 0 Z " fill="#050505" transform="translate(83,219)"/>
<path d="M0 0 C2.00720923 0.28674418 4.0085944 0.61866701 6 1 C6 2.65 6 4.3 6 6 C10.29 6 14.58 6 19 6 C19 6.99 19 7.98 19 9 C18.34 9 17.68 9 17 9 C17 12.3 17 15.6 17 19 C16.34 19 15.68 19 15 19 C15 18.34 15 17.68 15 17 C14.21625 17.04125 13.4325 17.0825 12.625 17.125 C10 17 10 17 8 15 C8 13.68 8 12.36 8 11 C8.66 11 9.32 11 10 11 C10 10.34 10 9.68 10 9 C8.68 9 7.36 9 6 9 C6 12.3 6 15.6 6 19 C5.01 19 4.02 19 3 19 C3 18.34 3 17.68 3 17 C1.68 17.99 0.36 18.98 -1 20 C0.32 20.66 1.64 21.32 3 22 C3 22.66 3 23.32 3 24 C1.906875 23.814375 0.81375 23.62875 -0.3125 23.4375 C-3.93624133 22.7421932 -3.93624133 22.7421932 -7 24 C-6.67 23.01 -6.34 22.02 -6 21 C-5.34 20.67 -4.68 20.34 -4 20 C-4.99 19.34 -5.98 18.68 -7 18 C-7 17.34 -7 16.68 -7 16 C-7.804375 16.020625 -8.60875 16.04125 -9.4375 16.0625 C-12 16 -12 16 -13 15 C-13.04080783 13.00041636 -13.04254356 10.99954746 -13 9 C-13.99 9 -14.98 9 -16 9 C-16 12.3 -16 15.6 -16 19 C-16.66 19 -17.32 19 -18 19 C-18 15.7 -18 12.4 -18 9 C-18.66 9 -19.32 9 -20 9 C-20.33 10.65 -20.66 12.3 -21 14 C-21.66 14 -22.32 14 -23 14 C-22.505 14.45375 -22.01 14.9075 -21.5 15.375 C-20 17 -20 17 -20 19 C-22.86207152 17.71700242 -25.0245088 16.469364 -27 14 C-27 13.01 -27 12.02 -27 11 C-26.01 11 -25.02 11 -24 11 C-23.67 10.01 -23.34 9.02 -23 8 C-24.32 7.67 -25.64 7.34 -27 7 C-18.75 7 -10.5 7 -2 7 C-2 7.33 -2 7.66 -2 8 C-4.64 8 -7.28 8 -10 8 C-10 8.66 -10 9.32 -10 10 C-7.36 10 -4.72 10 -2 10 C-1.67 10.66 -1.34 11.32 -1 12 C-1.99 12.33 -2.98 12.66 -4 13 C-4 13.99 -4 14.98 -4 16 C-0.535 15.505 -0.535 15.505 3 15 C3 12.69 3 10.38 3 8 C2.01 7.67 1.02 7.34 0 7 C0.99 7 1.98 7 3 7 C3 5.68 3 4.36 3 3 C2.01 3 1.02 3 0 3 C0 3.66 0 4.32 0 5 C-0.66 5 -1.32 5 -2 5 C-1.125 1.125 -1.125 1.125 0 0 Z " fill="#3B3B3B" transform="translate(56,219)"/>
<path d="M0 0 C0.33 0 0.66 0 1 0 C1 3.96 1 7.92 1 12 C0.01 11.67 -0.98 11.34 -2 11 C-1.67 12.32 -1.34 13.64 -1 15 C-2.32 14.67 -3.64 14.34 -5 14 C-5 14.99 -5 15.98 -5 17 C-3.5199159 16.88637738 -2.04089926 16.75877092 -0.5625 16.625 C0.26121094 16.55539063 1.08492187 16.48578125 1.93359375 16.4140625 C2.61550781 16.27742188 3.29742187 16.14078125 4 16 C4.33 15.34 4.66 14.68 5 14 C7.97 14.495 7.97 14.495 11 15 C11 15.33 11 15.66 11 16 C9.35 16.33 7.7 16.66 6 17 C7.98 17.33 9.96 17.66 12 18 C12 18.66 12 19.32 12 20 C10.68 20 9.36 20 8 20 C8 20.66 8 21.32 8 22 C9.32 22 10.64 22 12 22 C12 22.99 12 23.98 12 25 C10.35 25 8.7 25 7 25 C7 25.66 7 26.32 7 27 C8.65 27 10.3 27 12 27 C12 27.99 12 28.98 12 30 C9.66705225 30.04241723 7.33297433 30.04092937 5 30 C4 29 4 29 3.90234375 26.93359375 C3.91394531 26.10988281 3.92554688 25.28617188 3.9375 24.4375 C3.94652344 23.61121094 3.95554688 22.78492188 3.96484375 21.93359375 C3.97644531 21.29550781 3.98804688 20.65742188 4 20 C3.01 20 2.02 20 1 20 C1 23.3 1 26.6 1 30 C0.01 30 -0.98 30 -2 30 C-2 26.7 -2 23.4 -2 20 C-2.99 20 -3.98 20 -5 20 C-4.95875 21.11375 -4.9175 22.2275 -4.875 23.375 C-5 27 -5 27 -7 29 C-10 29.25 -10 29.25 -13 29 C-15 27 -15 27 -15.1953125 24.8359375 C-15.17210937 24.02382812 -15.14890625 23.21171875 -15.125 22.375 C-15.10695312 21.55773437 -15.08890625 20.74046875 -15.0703125 19.8984375 C-15.04710937 19.27195313 -15.02390625 18.64546875 -15 18 C-13.68 18 -12.36 18 -11 18 C-11 19.32 -11 20.64 -11 22 C-10.34 22 -9.68 22 -9 22 C-9.495 20.6078125 -9.495 20.6078125 -10 19.1875 C-11 16 -11 16 -11 13 C-12.32 13 -13.64 13 -15 13 C-14.67 12.01 -14.34 11.02 -14 10 C-13.34 10 -12.68 10 -12 10 C-12.495 9.54625 -12.99 9.0925 -13.5 8.625 C-15 7 -15 7 -15 5 C-12.625 4.875 -12.625 4.875 -10 5 C-9.34 5.66 -8.68 6.32 -8 7 C-6.01178687 7.39764263 -4.01055661 7.73775349 -2 8 C-2 8.66 -2 9.32 -2 10 C-1.34 10 -0.68 10 0 10 C0 6.7 0 3.4 0 0 Z " fill="#E1E1E1" transform="translate(170,228)"/>
<path d="M0 0 C1.98 0 3.96 0 6 0 C6 0.99 6 1.98 6 3 C4.68 2.67 3.36 2.34 2 2 C3.53604696 5.14191424 5.05731159 8.08596738 7 11 C6.67 11.66 6.34 12.32 6 13 C7.98 12.67 9.96 12.34 12 12 C11.814375 12.721875 11.62875 13.44375 11.4375 14.1875 C10.98004693 17.12826973 11.26483643 19.14103058 12 22 C11.34 22 10.68 22 10 22 C10 20.68 10 19.36 10 18 C8.68 18 7.36 18 6 18 C6.33 20.97 6.66 23.94 7 27 C8.98 27.66 10.96 28.32 13 29 C13 29.33 13 29.66 13 30 C9.04 30.495 9.04 30.495 5 31 C5 30.34 5 29.68 5 29 C4.01 29 3.02 29 2 29 C2 26.03 2 23.06 2 20 C2.99 20 3.98 20 5 20 C5 19.34 5 18.68 5 18 C-1.93 18 -8.86 18 -16 18 C-16 17.67 -16 17.34 -16 17 C-12.535 16.505 -12.535 16.505 -9 16 C-8.34 14.02 -7.68 12.04 -7 10 C-6.34 10 -5.68 10 -5 10 C-5.495 9.54625 -5.99 9.0925 -6.5 8.625 C-8 7 -8 7 -8 5 C-6.02 5 -4.04 5 -2 5 C-2 6.65 -2 8.3 -2 10 C-1.34 10 -0.68 10 0 10 C0 6.7 0 3.4 0 0 Z " fill="#F2F2F2" transform="translate(149,228)"/>
<path d="M0 0 C1.25425781 0.10183594 2.50851563 0.20367187 3.80078125 0.30859375 C5.22970703 0.43427734 5.22970703 0.43427734 6.6875 0.5625 C6.0275 1.2225 5.3675 1.8825 4.6875 2.5625 C4.28985737 4.55071313 3.94974651 6.55194339 3.6875 8.5625 C2.3675 8.5625 1.0475 8.5625 -0.3125 8.5625 C-0.6425 10.5425 -0.9725 12.5225 -1.3125 14.5625 C-2.09625 14.376875 -2.88 14.19125 -3.6875 14 C-6.28339775 13.30287734 -6.28339775 13.30287734 -8.3125 14.5625 C-10.96971295 14.28996534 -12.84845604 13.85052728 -15.125 12.4375 C-17.0359142 9.42026705 -16.74591637 7.02983097 -16.3125 3.5625 C-11.98732607 -1.24324881 -5.95918043 -0.50123948 0 0 Z " fill="#CFCFCF" transform="translate(203.3125,244.4375)"/>
<path d="M0 0 C3.3 0 6.6 0 10 0 C10 0.99 10 1.98 10 3 C9.01 3 8.02 3 7 3 C8.0209375 3.8353125 8.0209375 3.8353125 9.0625 4.6875 C11 7 11 7 10.8125 9.6875 C10 12 10 12 9 13 C6.78515625 12.984375 6.78515625 12.984375 4.0625 12.75 C3.16660156 12.68296875 2.27070312 12.6159375 1.34765625 12.546875 C-1 12 -1 12 -3 9 C-3.66 10.32 -4.32 11.64 -5 13 C-6.98 13 -8.96 13 -11 13 C-11 9.04 -11 5.08 -11 1 C-7.6875 0.6875 -7.6875 0.6875 -4 1 C-2.0625 3.5 -2.0625 3.5 -1 6 C-0.67 4.02 -0.34 2.04 0 0 Z " fill="#282828" transform="translate(121,245)"/>
<path d="M0 0 C3.3 0 6.6 0 10 0 C10 0.66 10 1.32 10 2 C8.68 2 7.36 2 6 2 C6.33 3.65 6.66 5.3 7 7 C6.34 7 5.68 7 5 7 C4.67 5.02 4.34 3.04 4 1 C3.34 1 2.68 1 2 1 C2.66 3.64 3.32 6.28 4 9 C5.65 8.67 7.3 8.34 9 8 C9 9.32 9 10.64 9 12 C9.99 12 10.98 12 12 12 C13.68236471 12.62599617 15.3523962 13.28752268 17 14 C16.67 14.66 16.34 15.32 16 16 C15.01 15.67 14.02 15.34 13 15 C12.67 15.99 12.34 16.98 12 18 C11.34 18 10.68 18 10 18 C9.67 18.99 9.34 19.98 9 21 C8.67 20.01 8.34 19.02 8 18 C6.68 18 5.36 18 4 18 C3.34 19.32 2.68 20.64 2 22 C1.4121875 21.319375 1.4121875 21.319375 0.8125 20.625 C-1.30832487 18.72357081 -3.33042235 17.93795972 -6 17 C-6.042721 15.33388095 -6.04063832 13.66617115 -6 12 C-5.67 11.67 -5.34 11.34 -5 11 C-3.30858344 11.08963062 -1.62040398 11.24577676 0.0625 11.4375 C0.98160156 11.53933594 1.90070313 11.64117187 2.84765625 11.74609375 C3.55792969 11.82988281 4.26820312 11.91367188 5 12 C5 11.34 5 10.68 5 10 C3.68 10 2.36 10 1 10 C0.67 8.02 0.34 6.04 0 4 C-1.32 4 -2.64 4 -4 4 C-4 3.34 -4 2.68 -4 2 C-2.68 2 -1.36 2 0 2 C0 1.34 0 0.68 0 0 Z " fill="#F4F4F4" transform="translate(93,228)"/>
<path d="M0 0 C1.32 0 2.64 0 4 0 C4.66 1.32 5.32 2.64 6 4 C6.33 2.68 6.66 1.36 7 0 C7.99 0 8.98 0 10 0 C10.33 2.97 10.66 5.94 11 9 C12.32 6.03 13.64 3.06 15 0 C15.99 0 16.98 0 18 0 C18.50615298 1.26839526 19.00469099 2.53983102 19.5 3.8125 C19.7784375 4.52019531 20.056875 5.22789062 20.34375 5.95703125 C21 8 21 8 21 11 C20.01 11 19.02 11 18 11 C18 10.34 18 9.68 18 9 C17.29875 9.33 16.5975 9.66 15.875 10 C12.60783642 11.13640472 10.42831815 11.52170059 7 11 C5.125 8.5 5.125 8.5 4 6 C3.67 7.98 3.34 9.96 3 12 C2.01 12 1.02 12 0 12 C0 8.04 0 4.08 0 0 Z " fill="#363636" transform="translate(28,246)"/>
<path d="M0 0 C7.26 0 14.52 0 22 0 C21.01 0.495 21.01 0.495 20 1 C20 2.65 20 4.3 20 6 C21.2065625 6.185625 21.2065625 6.185625 22.4375 6.375 C23.283125 6.58125 24.12875 6.7875 25 7 C25.33 7.66 25.66 8.32 26 9 C23.36 8.34 20.72 7.68 18 7 C18 7.66 18 8.32 18 9 C18.99 9.33 19.98 9.66 21 10 C21 10.66 21 11.32 21 12 C18.24542282 11.62005832 17.17979426 11.1926367 15.25 9.125 C14 7 14 7 14 4 C15.32 4.33 16.64 4.66 18 5 C18 4.01 18 3.02 18 2 C16.02 2 14.04 2 12 2 C12 5.3 12 8.6 12 12 C11.34 12 10.68 12 10 12 C10 10.35 10 8.7 10 7 C8.02 7 6.04 7 4 7 C4 7.66 4 8.32 4 9 C4.99 9.33 5.98 9.66 7 10 C7 10.66 7 11.32 7 12 C4.24542282 11.62005832 3.17979426 11.1926367 1.25 9.125 C0 7 0 7 0 4 C0.66 4 1.32 4 2 4 C2 4.66 2 5.32 2 6 C4.64 5.67 7.28 5.34 10 5 C10 4.01 10 3.02 10 2 C8.68 2 7.36 2 6 2 C5.67 2.66 5.34 3.32 5 4 C4.67 3.34 4.34 2.68 4 2 C2.68 1.34 1.36 0.68 0 0 Z " fill="#141414" transform="translate(137,226)"/>
<path d="M0 0 C2.31 0 4.62 0 7 0 C7 0.66 7 1.32 7 2 C5.68 2 4.36 2 3 2 C3 2.66 3 3.32 3 4 C4.65 4 6.3 4 8 4 C8.33 2.68 8.66 1.36 9 0 C10.98 0 12.96 0 15 0 C15 0.66 15 1.32 15 2 C13.68 2 12.36 2 11 2 C11 2.66 11 3.32 11 4 C12.32 4.33 13.64 4.66 15 5 C15.6875 6.8125 15.6875 6.8125 16 9 C14.875 10.75 14.875 10.75 13 12 C10.3125 12.1875 10.3125 12.1875 8 12 C8 10.35 8 8.7 8 7 C6.35 7 4.7 7 3 7 C3 7.66 3 8.32 3 9 C4.32 9 5.64 9 7 9 C7 9.66 7 10.32 7 11 C4.69 11 2.38 11 0 11 C0 7.37 0 3.74 0 0 Z " fill="#A1A1A1" transform="translate(223,246)"/>
<path d="M0 0 C0.598125 0.165 1.19625 0.33 1.8125 0.5 C5.30811427 1.29899755 7.47534389 0.88116403 11 0 C11 3.3 11 6.6 11 10 C12.65 10 14.3 10 16 10 C16 10.66 16 11.32 16 12 C12.37 12 8.74 12 5 12 C5 11.01 5 10.02 5 9 C3.35 9 1.7 9 0 9 C0 9.66 0 10.32 0 11 C-0.99 11 -1.98 11 -3 11 C-2.11223998 7.30099992 -1.05418136 3.65449539 0 0 Z " fill="#787878" transform="translate(89,246)"/>
<path d="M0 0 C1.32 0 2.64 0 4 0 C4 0.66 4 1.32 4 2 C3.34 2 2.68 2 2 2 C2.62533375 4.52363988 2.62533375 4.52363988 4 7 C6.54775306 7.89386164 6.54775306 7.89386164 9 8 C8.67 8.66 8.34 9.32 8 10 C7.34 9.67 6.68 9.34 6 9 C5.67 10.32 5.34 11.64 5 13 C4.67 13 4.34 13 4 13 C4 13.66 4 14.32 4 15 C1.62398702 17.42791617 0.41660628 17.98974674 -3.015625 18.07421875 C-4.08296875 17.94660156 -5.1503125 17.81898438 -6.25 17.6875 C-7.32765625 17.56761719 -8.4053125 17.44773438 -9.515625 17.32421875 C-10.33546875 17.21722656 -11.1553125 17.11023438 -12 17 C-11.34 15.68 -10.68 14.36 -10 13 C-7.61435923 13.57584432 -5.33317216 14.22227595 -3 15 C-3 14.34 -3 13.68 -3 13 C-5.475 12.01 -5.475 12.01 -8 11 C-6.625 9.5 -6.625 9.5 -5 8 C-4.34 8 -3.68 8 -3 8 C-3 8.66 -3 9.32 -3 10 C-2.01 10 -1.02 10 0 10 C0 6.7 0 3.4 0 0 Z " fill="#E9E9E9" transform="translate(62,228)"/>
<path d="M0 0 C17.16 0 34.32 0 52 0 C51.67 0.99 51.34 1.98 51 3 C51 2.34 51 1.68 51 1 C41.1 1.495 41.1 1.495 31 2 C31 4.31 31 6.62 31 9 C26.78121808 9.19622241 23.82989106 8.80230168 20 7 C20 5.35 20 3.7 20 2 C13.4 1.67 6.8 1.34 0 1 C0 0.67 0 0.34 0 0 Z " fill="#6A6A6A" transform="translate(137,225)"/>
<path d="M0 0 C1.19882813 0.15275391 1.19882813 0.15275391 2.421875 0.30859375 C3.02515625 0.39238281 3.6284375 0.47617188 4.25 0.5625 C4.25 1.5525 4.25 2.5425 4.25 3.5625 C2.6 3.8925 0.95 4.2225 -0.75 4.5625 C-1.08 6.5425 -1.41 8.5225 -1.75 10.5625 C-0.43 10.8925 0.89 11.2225 2.25 11.5625 C2.25 10.5725 2.25 9.5825 2.25 8.5625 C1.59 8.5625 0.93 8.5625 0.25 8.5625 C0.25 7.9025 0.25 7.2425 0.25 6.5625 C1.9 6.5625 3.55 6.5625 5.25 6.5625 C5.25 8.5425 5.25 10.5225 5.25 12.5625 C3.991875 12.60375 2.73375 12.645 1.4375 12.6875 C0.72980469 12.71070313 0.02210938 12.73390625 -0.70703125 12.7578125 C-2.75 12.5625 -2.75 12.5625 -5.75 10.5625 C-5.75 11.2225 -5.75 11.8825 -5.75 12.5625 C-6.74 12.5625 -7.73 12.5625 -8.75 12.5625 C-8.75 8.6025 -8.75 4.6425 -8.75 0.5625 C-5.17489889 -0.33127528 -3.50082437 -0.4633444 0 0 Z " fill="#2E2E2E" transform="translate(248.75,244.4375)"/>
<path d="M0 0 C0.99 0 1.98 0 3 0 C3 3.96 3 7.92 3 12 C-1 14 -1 14 -3.25 13.625 C-3.8275 13.41875 -4.405 13.2125 -5 13 C-4.625 11.0625 -4.625 11.0625 -4 9 C-3.34 8.67 -2.68 8.34 -2 8 C-2.94875 8.020625 -3.8975 8.04125 -4.875 8.0625 C-8 8 -8 8 -10 7 C-10 6.34 -10 5.68 -10 5 C-14.29 5 -18.58 5 -23 5 C-23 5.33 -23 5.66 -23 6 C-24.65 6 -26.3 6 -28 6 C-28 5.01 -28 4.02 -28 3 C-18.76 2.67 -9.52 2.34 0 2 C0 1.34 0 0.68 0 0 Z " fill="#888888" transform="translate(56,222)"/>
<path d="M0 0 C6.93 0 13.86 0 21 0 C21 0.66 21 1.32 21 2 C20.01 2 19.02 2 18 2 C18 4.97 18 7.94 18 11 C17.34 11 16.68 11 16 11 C16 8.03 16 5.06 16 2 C14.68 2 13.36 2 12 2 C12 5.3 12 8.6 12 12 C11.01 12 10.02 12 9 12 C9 8.7 9 5.4 9 2 C7.68 2 6.36 2 5 2 C5 4.97 5 7.94 5 11 C4.34 11 3.68 11 3 11 C3 8.03 3 5.06 3 2 C2.01 2 1.02 2 0 2 C0 1.34 0 0.68 0 0 Z " fill="#575757" transform="translate(133,246)"/>
<path d="M0 0 C0.99 0.66 1.98 1.32 3 2 C3.3125 5.5 3.3125 5.5 3 9 C1 11 1 11 -2.5 11.25 C-6 11 -6 11 -8 9 C-8.333728 5.86295684 -8.52849028 3.83445834 -6.8125 1.125 C-4.36830089 -0.3920891 -2.83079592 -0.35384949 0 0 Z " fill="#252525" transform="translate(71,246)"/>
<path d="M0 0 C1.670625 0.37125 1.670625 0.37125 3.375 0.75 C4.75625018 3.51250036 4.56579306 5.69731099 4.375 8.75 C2.375 10.75 2.375 10.75 -0.5625 11 C-3.625 10.75 -3.625 10.75 -6.625 8.75 C-7 5.25 -7 5.25 -6.625 1.75 C-3.625 -0.25 -3.625 -0.25 0 0 Z " fill="#1B1B1B" transform="translate(193.625,246.25)"/>
<path d="M0 0 C4.29 0 8.58 0 13 0 C13 0.99 13 1.98 13 3 C12.34 3 11.68 3 11 3 C11 6.3 11 9.6 11 13 C10.34 13 9.68 13 9 13 C9 12.34 9 11.68 9 11 C8.21625 11.04125 7.4325 11.0825 6.625 11.125 C4 11 4 11 2 9 C2 7.68 2 6.36 2 5 C2.66 5 3.32 5 4 5 C4 4.34 4 3.68 4 3 C2.68 2.67 1.36 2.34 0 2 C0 1.34 0 0.68 0 0 Z " fill="#4F4F4F" transform="translate(62,225)"/>
<path d="M0 0 C0.9075 0.309375 1.815 0.61875 2.75 0.9375 C5.16563338 1.7272263 7.52780285 2.42949297 10 3 C10 3.99 10 4.98 10 6 C9.01 6 8.02 6 7 6 C6.67 6.99 6.34 7.98 6 9 C2.7 9.33 -0.6 9.66 -4 10 C-4 12.97 -4 15.94 -4 19 C-4.66 19.33 -5.32 19.66 -6 20 C-6.02694851 18.04174127 -6.04637218 16.08337774 -6.0625 14.125 C-6.07410156 13.03445312 -6.08570313 11.94390625 -6.09765625 10.8203125 C-6 8 -6 8 -5 6 C-4.01 6 -3.02 6 -2 6 C-2.33 5.01 -2.66 4.02 -3 3 C-2.01 2.01 -1.02 1.02 0 0 Z " fill="#F3F3F3" transform="translate(68,237)"/>
<path d="M0 0 C3.3 0 6.6 0 10 0 C10 0.99 10 1.98 10 3 C9.01 3 8.02 3 7 3 C7.680625 3.556875 8.36125 4.11375 9.0625 4.6875 C11 7 11 7 10.8125 9.6875 C10 12 10 12 9 13 C6.66055264 12.71269945 4.3260857 12.38063221 2 12 C2 8.37 2 4.74 2 1 C1.34 0.67 0.68 0.34 0 0 Z " fill="#C1C1C1" transform="translate(121,245)"/>
<path d="M0 0 C8.25 0 16.5 0 25 0 C25 0.33 25 0.66 25 1 C22.36 1 19.72 1 17 1 C17 1.66 17 2.32 17 3 C16.01 3.33 15.02 3.66 14 4 C14 3.34 14 2.68 14 2 C13.01 2 12.02 2 11 2 C11 5.3 11 8.6 11 12 C10.34 12 9.68 12 9 12 C9 8.7 9 5.4 9 2 C8.34 2 7.68 2 7 2 C6.67 3.65 6.34 5.3 6 7 C5.34 7 4.68 7 4 7 C4.495 7.45375 4.99 7.9075 5.5 8.375 C7 10 7 10 7 12 C4.13792848 10.71700242 1.9754912 9.469364 0 7 C0 6.01 0 5.02 0 4 C0.99 4 1.98 4 3 4 C3.33 3.01 3.66 2.02 4 1 C2.68 0.67 1.36 0.34 0 0 Z " fill="#141414" transform="translate(29,226)"/>
<path d="M0 0 C1.32 0 2.64 0 4 0 C4.66 1.32 5.32 2.64 6 4 C6.33 2.68 6.66 1.36 7 0 C7.99 0 8.98 0 10 0 C10 3.96 10 7.92 10 12 C6 11 6 11 4.75 8.9375 C4.37875 7.9784375 4.37875 7.9784375 4 7 C3.67 8.65 3.34 10.3 3 12 C2.01 12.33 1.02 12.66 0 13 C0 8.71 0 4.42 0 0 Z " fill="#525252" transform="translate(255,246)"/>
<path d="M0 0 C6.75 0.875 6.75 0.875 9 2 C9.125 5.375 9.125 5.375 9 9 C7 11 7 11 3.375 11.125 C2.26125 11.08375 1.1475 11.0425 0 11 C0 7.37 0 3.74 0 0 Z " fill="#131313" transform="translate(212,246)"/>
<path d="M0 0 C3 1 3 1 4 3 C3.67 3.66 3.34 4.32 3 5 C3.66 5.33 4.32 5.66 5 6 C4.01 6.495 4.01 6.495 3 7 C2.59270772 9.32156597 2.25561323 11.6568787 2 14 C2.99 14.33 3.98 14.66 5 15 C4.01 15.495 4.01 15.495 3 16 C-1.69360269 13.82491582 -1.69360269 13.82491582 -2.8125 10.8125 C-2.9053125 9.9153125 -2.9053125 9.9153125 -3 9 C-4.32 9 -5.64 9 -7 9 C-7 8.34 -7 7.68 -7 7 C-5.68 7 -4.36 7 -3 7 C-3 6.34 -3 5.68 -3 5 C-5.31 5 -7.62 5 -10 5 C-10 4.67 -10 4.34 -10 4 C-5.545 3.505 -5.545 3.505 -1 3 C-0.67 2.01 -0.34 1.02 0 0 Z " fill="#EFEFEF" transform="translate(185,241)"/>
<path d="M0 0 C4.23169259 0.37615045 6.8083482 1.17661571 10 4 C9.67 4.66 9.34 5.32 9 6 C6.03 5.01 3.06 4.02 0 3 C0 4.32 0 5.64 0 7 C2.97 7 5.94 7 9 7 C8.67 7.99 8.34 8.98 8 10 C8 9.34 8 8.68 8 8 C5.36 8 2.72 8 0 8 C0 11.63 0 15.26 0 19 C-0.66 19 -1.32 19 -2 19 C-2 15.7 -2 12.4 -2 9 C-2.66 9 -3.32 9 -4 9 C-4 8.01 -4 7.02 -4 6 C-3.34 6 -2.68 6 -2 6 C-1.855625 5.195625 -1.71125 4.39125 -1.5625 3.5625 C-1 1 -1 1 0 0 Z " fill="#303030" transform="translate(83,219)"/>
<path d="M0 0 C1.670625 0.2475 1.670625 0.2475 3.375 0.5 C7.39577481 1.2063712 7.39577481 1.2063712 11 0 C11 0.99 11 1.98 11 3 C23.87 3 36.74 3 50 3 C49.67 3.99 49.34 4.98 49 6 C49 5.34 49 4.68 49 4 C32.83 4 16.66 4 0 4 C0 2.68 0 1.36 0 0 Z " fill="#878787" transform="translate(83,222)"/>
<path d="M0 0 C1.85772162 0.08984301 3.71247985 0.24611861 5.5625 0.4375 C7.08037109 0.59025391 7.08037109 0.59025391 8.62890625 0.74609375 C9.80259766 0.87177734 9.80259766 0.87177734 11 1 C11 1.33 11 1.66 11 2 C7.7 2 4.4 2 1 2 C1 2.66 1 3.32 1 4 C-0.32 4 -1.64 4 -3 4 C-3 4.66 -3 5.32 -3 6 C-1.68 6 -0.36 6 1 6 C1.38218767 7.65614657 1.71395102 9.32457024 2 11 C1 12 1 12 -0.84765625 12.09765625 C-2.8984375 12.06510417 -4.94921875 12.03255208 -7 12 C-7 11.01 -7 10.02 -7 9 C-4.03 9.495 -4.03 9.495 -1 10 C-1 9.34 -1 8.68 -1 8 C-2.65 7.67 -4.3 7.34 -6 7 C-6 5.68 -6 4.36 -6 3 C-6.99 2.34 -7.98 1.68 -9 1 C-7.700625 1.020625 -6.40125 1.04125 -5.0625 1.0625 C-3.70834367 1.08399454 -2.35243917 1.07148199 -1 1 C-0.67 0.67 -0.34 0.34 0 0 Z " fill="#323232" transform="translate(92,226)"/>
<path d="M0 0 C1.32 0 2.64 0 4 0 C4 0.99 4 1.98 4 3 C1.36 3.33 -1.28 3.66 -4 4 C-4 3.34 -4 2.68 -4 2 C-4.99 2 -5.98 2 -7 2 C-7 4.31 -7 6.62 -7 9 C-8.32 9 -9.64 9 -11 9 C-11 6.03 -11 3.06 -11 0 C-6.10372814 -2.44813593 -5.01357564 -1.61150645 0 0 Z " fill="#F9F9F9" transform="translate(143,228)"/>
<path d="M0 0 C3.96 0 7.92 0 12 0 C12 3.96 12 7.92 12 12 C11.01 12 10.02 12 9 12 C9 8.7 9 5.4 9 2 C7.68 2 6.36 2 5 2 C5 4.97 5 7.94 5 11 C4.34 11 3.68 11 3 11 C3 8.03 3 5.06 3 2 C2.01 2 1.02 2 0 2 C0 1.34 0 0.68 0 0 Z " fill="#464646" transform="translate(50,246)"/>
<path d="M0 0 C0.66 0 1.32 0 2 0 C2 3.3 2 6.6 2 10 C2.66 10 3.32 10 4 10 C4.04254356 11.99954746 4.04080783 14.00041636 4 16 C3 17 3 17 0.93359375 17.09765625 C0.10988281 17.08605469 -0.71382812 17.07445312 -1.5625 17.0625 C-2.38878906 17.05347656 -3.21507812 17.04445312 -4.06640625 17.03515625 C-5.02353516 17.01775391 -5.02353516 17.01775391 -6 17 C-6.33 15.68 -6.66 14.36 -7 13 C-5.68 13.33 -4.36 13.66 -3 14 C-3 13.01 -3 12.02 -3 11 C-2.34 11 -1.68 11 -1 11 C-0.67 7.37 -0.34 3.74 0 0 Z " fill="#EDEDED" transform="translate(171,228)"/>
<path d="M0 0 C0.33 0.66 0.66 1.32 1 2 C3.11846285 2.68729254 3.11846285 2.68729254 5.5625 3.125 C6.80193359 3.37636719 6.80193359 3.37636719 8.06640625 3.6328125 C8.70449219 3.75398437 9.34257813 3.87515625 10 4 C10 4.33 10 4.66 10 5 C7.36 5 4.72 5 2 5 C2 5.66 2 6.32 2 7 C2.99 7 3.98 7 5 7 C5 9.97 5 12.94 5 16 C4.67 15.34 4.34 14.68 4 14 C3.34 14 2.68 14 2 14 C2 15.32 2 16.64 2 18 C1.01 18 0.02 18 -1 18 C-1 17.34 -1 16.68 -1 16 C-0.34 16 0.32 16 1 16 C0.01 12.7 -0.98 9.4 -2 6 C-1.01 6 -0.02 6 1 6 C1 5.34 1 4.68 1 4 C0.34 3.67 -0.32 3.34 -1 3 C-0.67 2.01 -0.34 1.02 0 0 Z " fill="#BCBCBC" transform="translate(48,241)"/>
<path d="M0 0 C0.99 0 1.98 0 3 0 C3.33 1.98 3.66 3.96 4 6 C5.2065625 6.185625 5.2065625 6.185625 6.4375 6.375 C7.7059375 6.684375 7.7059375 6.684375 9 7 C9.33 7.66 9.66 8.32 10 9 C10.99 9.66 11.98 10.32 13 11 C9.77208445 13.1519437 8.71599191 13.20086443 5 13 C4.67 12.01 4.34 11.02 4 10 C2.68 10 1.36 10 0 10 C0 6.7 0 3.4 0 0 Z " fill="#E8E8E8" transform="translate(40,228)"/>
<path d="M0 0 C-0.33 3.96 -0.66 7.92 -1 12 C-1.99 12 -2.98 12 -4 12 C-4 10.02 -4 8.04 -4 6 C-4.99 6.66 -5.98 7.32 -7 8 C-9.1875 7.625 -9.1875 7.625 -11 7 C-11 6.01 -11 5.02 -11 4 C-8.69 4 -6.38 4 -4 4 C-4 3.34 -4 2.68 -4 2 C-6.64 2 -9.28 2 -12 2 C-12 1.67 -12 1.34 -12 1 C-7.915021 0.45533613 -4.1274515 0 0 0 Z " fill="#414141" transform="translate(132,226)"/>
<path d="M0 0 C2.00720923 0.28674418 4.0085944 0.61866701 6 1 C6 2.98 6 4.96 6 7 C7.32 7.33 8.64 7.66 10 8 C8.68 8 7.36 8 6 8 C6 11.63 6 15.26 6 19 C5.34 19 4.68 19 4 19 C3.96261719 18.30132812 3.92523438 17.60265625 3.88671875 16.8828125 C3.78810547 15.51769531 3.78810547 15.51769531 3.6875 14.125 C3.62949219 13.22007812 3.57148437 12.31515625 3.51171875 11.3828125 C3.2117961 8.63778399 3.2117961 8.63778399 0 7 C0.99 7 1.98 7 3 7 C3 5.68 3 4.36 3 3 C2.01 3 1.02 3 0 3 C0 3.66 0 4.32 0 5 C-0.66 5 -1.32 5 -2 5 C-1.125 1.125 -1.125 1.125 0 0 Z " fill="#121212" transform="translate(56,219)"/>
<path d="M0 0 C0.66 0 1.32 0 2 0 C2 0.66 2 1.32 2 2 C2.66 2.33 3.32 2.66 4 3 C3.01 3 2.02 3 1 3 C1.33 5.97 1.66 8.94 2 12 C3.98 12.66 5.96 13.32 8 14 C8 14.33 8 14.66 8 15 C5.36 15.33 2.72 15.66 0 16 C0 15.34 0 14.68 0 14 C-0.99 14 -1.98 14 -3 14 C-3 11.03 -3 8.06 -3 5 C-2.01 5 -1.02 5 0 5 C0 4.34 0 3.68 0 3 C-2.64 3 -5.28 3 -8 3 C-8 2.67 -8 2.34 -8 2 C-6.865625 1.855625 -5.73125 1.71125 -4.5625 1.5625 C-1.19222799 1.38828522 -1.19222799 1.38828522 0 0 Z " fill="#D5D5D5" transform="translate(154,243)"/>
<path d="M0 0 C2.31 0 4.62 0 7 0 C7 0.66 7 1.32 7 2 C5.68 2 4.36 2 3 2 C3 2.66 3 3.32 3 4 C4.32 4 5.64 4 7 4 C7 4.99 7 5.98 7 7 C5.35 7 3.7 7 2 7 C2 7.66 2 8.32 2 9 C3.65 9 5.3 9 7 9 C7 9.99 7 10.98 7 12 C4.69 12 2.38 12 0 12 C0 8.04 0 4.08 0 0 Z " fill="#3A3A3A" transform="translate(175,246)"/>
<path d="M0 0 C1.32 0.33 2.64 0.66 4 1 C4.33 2.98 4.66 4.96 5 7 C5.66 7 6.32 7 7 7 C7 4.69 7 2.38 7 0 C7.66 0 8.32 0 9 0 C9 3.63 9 7.26 9 11 C5 10 5 10 3.75 7.9375 C3.37875 6.9784375 3.37875 6.9784375 3 6 C2.67 7.65 2.34 9.3 2 11 C1.34 11 0.68 11 0 11 C0 7.37 0 3.74 0 0 Z " fill="#3C3C3C" transform="translate(76,246)"/>
<path d="M0 0 C0 0.66 0 1.32 0 2 C-0.66 2 -1.32 2 -2 2 C-2 5.3 -2 8.6 -2 12 C-2.66 12 -3.32 12 -4 12 C-4 10.02 -4 8.04 -4 6 C-4.99 6 -5.98 6 -7 6 C-7 6.99 -7 7.98 -7 9 C-8.32 8.67 -9.64 8.34 -11 8 C-11 6.68 -11 5.36 -11 4 C-8.69 4 -6.38 4 -4 4 C-4 3.34 -4 2.68 -4 2 C-6.97 2 -9.94 2 -13 2 C-13 1.67 -13 1.34 -13 1 C-8.62426048 0.40667939 -4.42471556 -0.13827236 0 0 Z " fill="#404040" transform="translate(188,226)"/>
<path d="M0 0 C1.19882813 0.15275391 1.19882813 0.15275391 2.421875 0.30859375 C3.02515625 0.39238281 3.6284375 0.47617188 4.25 0.5625 C4.25 0.8925 4.25 1.2225 4.25 1.5625 C1.61 2.2225 -1.03 2.8825 -3.75 3.5625 C-4.41 6.5325 -5.07 9.5025 -5.75 12.5625 C-6.74 12.5625 -7.73 12.5625 -8.75 12.5625 C-8.75 8.6025 -8.75 4.6425 -8.75 0.5625 C-5.17489889 -0.33127528 -3.50082437 -0.4633444 0 0 Z " fill="#646464" transform="translate(248.75,244.4375)"/>
<path d="M0 0 C0.33 1.32 0.66 2.64 1 4 C1.99 4 2.98 4 4 4 C4.33 5.98 4.66 7.96 5 10 C3.576875 9.9071875 3.576875 9.9071875 2.125 9.8125 C0.578125 9.9053125 0.578125 9.9053125 -1 10 C-1.99 11.485 -1.99 11.485 -3 13 C-3.9765625 6.9453125 -3.9765625 6.9453125 -4 5 C-3.34 4.34 -2.68 3.68 -2 3 C-2.99 2.34 -3.98 1.68 -5 1 C-3.35 0.67 -1.7 0.34 0 0 Z " fill="#EEEEEE" transform="translate(44,237)"/>
<path d="M0 0 C2.64 0 5.28 0 8 0 C8 0.66 8 1.32 8 2 C5.69 2 3.38 2 1 2 C1.33 2.99 1.66 3.98 2 5 C3.98 4.67 5.96 4.34 8 4 C8 4.66 8 5.32 8 6 C6 7.625 6 7.625 4 9 C4.33 9.66 4.66 10.32 5 11 C3.35 11 1.7 11 0 11 C-0.33 9.02 -0.66 7.04 -1 5 C-2.32 4.67 -3.64 4.34 -5 4 C-5 3.34 -5 2.68 -5 2 C-3.35 2 -1.7 2 0 2 C0 1.34 0 0.68 0 0 Z " fill="#DBDBDB" transform="translate(120,228)"/>
<path d="M0 0 C0.99 0 1.98 0 3 0 C3.33 2.97 3.66 5.94 4 9 C4.66 9 5.32 9 6 9 C6.33 6.03 6.66 3.06 7 0 C7.66 0 8.32 0 9 0 C9.02688151 1.64574566 9.04634123 3.29161413 9.0625 4.9375 C9.07410156 5.85402344 9.08570313 6.77054688 9.09765625 7.71484375 C9 10 9 10 8 11 C5.0625 11.1875 5.0625 11.1875 2 11 C0 9 0 9 -0.1953125 6.8359375 C-0.17210937 6.02382812 -0.14890625 5.21171875 -0.125 4.375 C-0.10695312 3.55773437 -0.08890625 2.74046875 -0.0703125 1.8984375 C-0.04710937 1.27195313 -0.02390625 0.64546875 0 0 Z " fill="#2D2D2D" transform="translate(155,246)"/>
<path d="M0 0 C0.99 0 1.98 0 3 0 C3 3.3 3 6.6 3 10 C3.99 10.33 4.98 10.66 6 11 C4.35 11 2.7 11 1 11 C0.67 11.66 0.34 12.32 0 13 C-1.9375 12.625 -1.9375 12.625 -4 12 C-4.33 11.34 -4.66 10.68 -5 10 C-4.34 10 -3.68 10 -3 10 C-3.33 9.01 -3.66 8.02 -4 7 C-3.34 6.01 -2.68 5.02 -2 4 C-2 5.98 -2 7.96 -2 10 C-1.34 10 -0.68 10 0 10 C0 6.7 0 3.4 0 0 Z " fill="#EEEEEE" transform="translate(105,228)"/>
<path d="M0 0 C1.125 7.75 1.125 7.75 0 10 C-0.969375 9.835 -1.93875 9.67 -2.9375 9.5 C-4.95983571 9.14007707 -4.95983571 9.14007707 -7 9 C-7.66 9 -8.32 9 -9 9 C-8 6 -8 6 -5.9375 4.8125 C-5.298125 4.544375 -4.65875 4.27625 -4 4 C-4.66 3.34 -5.32 2.68 -6 2 C-2.25 0 -2.25 0 0 0 Z " fill="#F8F8F8" transform="translate(128,234)"/>
<path d="M0 0 C0.66 0.33 1.32 0.66 2 1 C1.53199289 5.05606165 1.12046792 8.46588679 -1 12 C-0.34 12.33 0.32 12.66 1 13 C-5.625 13.125 -5.625 13.125 -9 12 C-9 10.02 -9 8.04 -9 6 C-7.29159719 7.63412443 -6.06546953 8.86906094 -5 11 C-4.01 11.33 -3.02 11.66 -2 12 C-2 8.37 -2 4.74 -2 1 C-1.34 0.67 -0.68 0.34 0 0 Z " fill="#DEDEDE" transform="translate(87,245)"/>
<path d="M0 0 C1.32 0.33 2.64 0.66 4 1 C4.33 2.98 4.66 4.96 5 7 C6.65 6.67 8.3 6.34 10 6 C10.33 7.65 10.66 9.3 11 11 C5.38098156 8.89286808 -0.00614479 6.32923681 -5 3 C-3.68 3 -2.36 3 -1 3 C-0.67 2.01 -0.34 1.02 0 0 Z " fill="#EBEBEB" transform="translate(224,66)"/>
<path d="M0 0 C1.98 0 3.96 0 6 0 C6 0.66 6 1.32 6 2 C4.68 2 3.36 2 2 2 C2 2.66 2 3.32 2 4 C3.32 4.33 4.64 4.66 6 5 C6.625 6.875 6.625 6.875 7 9 C5 11 5 11 2.375 11.125 C1.59125 11.08375 0.8075 11.0425 0 11 C0.99 10.67 1.98 10.34 3 10 C3 9.01 3 8.02 3 7 C1.68 6.34 0.36 5.68 -1 5 C-0.67 3.35 -0.34 1.7 0 0 Z " fill="#2D2D2D" transform="translate(232,246)"/>
<path d="M0 0 C1.32 0 2.64 0 4 0 C4 3.63 4 7.26 4 11 C4.66 11.33 5.32 11.66 6 12 C4.02 12 2.04 12 0 12 C0 8.04 0 4.08 0 0 Z " fill="#717171" transform="translate(110,246)"/>
<path d="M0 0 C1.37478516 0.01740234 1.37478516 0.01740234 2.77734375 0.03515625 C3.69644531 0.04417969 4.61554687 0.05320313 5.5625 0.0625 C6.27277344 0.07410156 6.98304687 0.08570313 7.71484375 0.09765625 C8.04484375 0.75765625 8.37484375 1.41765625 8.71484375 2.09765625 C8.07546875 2.38640625 7.43609375 2.67515625 6.77734375 2.97265625 C4.56278296 3.92589076 4.56278296 3.92589076 3.71484375 6.09765625 C1.73484375 6.09765625 -0.24515625 6.09765625 -2.28515625 6.09765625 C-2.66734392 4.44150968 -2.99910727 2.77308601 -3.28515625 1.09765625 C-2.28515625 0.09765625 -2.28515625 0.09765625 0 0 Z " fill="#161616" transform="translate(46.28515625,228.90234375)"/>
<path d="M0 0 C3.3 0 6.6 0 10 0 C10 0.66 10 1.32 10 2 C8.68 2 7.36 2 6 2 C6.33 3.65 6.66 5.3 7 7 C6.34 7 5.68 7 5 7 C4.67 5.02 4.34 3.04 4 1 C3.34 1 2.68 1 2 1 C2.66 3.31 3.32 5.62 4 8 C3.01 8 2.02 8 1 8 C0.67 6.68 0.34 5.36 0 4 C-1.32 4 -2.64 4 -4 4 C-4 3.34 -4 2.68 -4 2 C-2.68 2 -1.36 2 0 2 C0 1.34 0 0.68 0 0 Z " fill="#CECECE" transform="translate(93,228)"/>
<path d="M0 0 C2.97 0 5.94 0 9 0 C9 0.66 9 1.32 9 2 C8.01 2 7.02 2 6 2 C6 5.3 6 8.6 6 12 C5.01 12 4.02 12 3 12 C3 8.7 3 5.4 3 2 C2.01 2 1.02 2 0 2 C0 1.34 0 0.68 0 0 Z " fill="#323232" transform="translate(165,246)"/>
<path d="M0 0 C1.32 0 2.64 0 4 0 C4 3.3 4 6.6 4 10 C2.35 10.33 0.7 10.66 -1 11 C-1.33 10.34 -1.66 9.68 -2 9 C-1.34 9 -0.68 9 0 9 C0 6.03 0 3.06 0 0 Z " fill="#E0E0E0" transform="translate(138,248)"/>
<path d="M0 0 C3.63559661 3.43361902 6.36113346 6.7973607 9 11 C5.2019186 11 3.0288632 10.95790712 0.1875 8.3125 C-1.40689803 5.20761963 -0.82845843 3.31383374 0 0 Z " fill="#ECECEC" transform="translate(33,68)"/>
<path d="M0 0 C1.65 0 3.3 0 5 0 C5 0.66 5 1.32 5 2 C4.01 2 3.02 2 2 2 C2.680625 2.556875 3.36125 3.11375 4.0625 3.6875 C5.0215625 4.8321875 5.0215625 4.8321875 6 6 C5.75 8.75 5.75 8.75 5 11 C3.35 11 1.7 11 0 11 C0.99 10.67 1.98 10.34 3 10 C3 9.01 3 8.02 3 7 C1.68 6.34 0.36 5.68 -1 5 C-0.67 3.35 -0.34 1.7 0 0 Z " fill="#242424" transform="translate(126,246)"/>
<path d="M0 0 C0.33 0 0.66 0 1 0 C1 3.3 1 6.6 1 10 C0.34 9.01 -0.32 8.02 -1 7 C-1.33 7.66 -1.66 8.32 -2 9 C-3.32 9 -4.64 9 -6 9 C-8.1519437 5.77208445 -8.20086443 4.71599191 -8 1 C-7.34 1 -6.68 1 -6 1 C-5.67 2.98 -5.34 4.96 -5 7 C-4.34 7 -3.68 7 -3 7 C-3.33 5.35 -3.66 3.7 -4 2 C-2.68 2 -1.36 2 0 2 C0 1.34 0 0.68 0 0 Z " fill="#303030" transform="translate(103,228)"/>
<path d="M0 0 C1.32 0.66 2.64 1.32 4 2 C3.67 3.32 3.34 4.64 3 6 C2.15566406 5.83757813 1.31132812 5.67515625 0.44140625 5.5078125 C-3.11193286 4.98348323 -6.47245233 4.86718706 -10.0625 4.875 C-11.24972656 4.87242188 -12.43695313 4.86984375 -13.66015625 4.8671875 C-16.57434445 4.98307335 -19.17085017 5.32613823 -22 6 C-22 5.34 -22 4.68 -22 4 C-19.22276075 3.21311555 -16.77389923 2.88050076 -13.890625 2.90234375 C-13.13652344 2.90556641 -12.38242188 2.90878906 -11.60546875 2.91210938 C-10.82816406 2.92048828 -10.05085937 2.92886719 -9.25 2.9375 C-8.45722656 2.94201172 -7.66445312 2.94652344 -6.84765625 2.95117188 C-4.89840492 2.96291435 -2.94919262 2.98084854 -1 3 C-0.67 2.01 -0.34 1.02 0 0 Z " fill="#C5C5C5" transform="translate(169,9)"/>
<path d="M0 0 C0.58265625 0.22558594 1.1653125 0.45117188 1.765625 0.68359375 C2.095625 2.99359375 2.425625 5.30359375 2.765625 7.68359375 C1.775625 8.17859375 1.775625 8.17859375 0.765625 8.68359375 C0.765625 7.36359375 0.765625 6.04359375 0.765625 4.68359375 C-0.884375 4.68359375 -2.534375 4.68359375 -4.234375 4.68359375 C-4.564375 5.34359375 -4.894375 6.00359375 -5.234375 6.68359375 C-6.224375 7.17859375 -6.224375 7.17859375 -7.234375 7.68359375 C-7.894375 7.02359375 -8.554375 6.36359375 -9.234375 5.68359375 C-8.16544282 4.64769037 -7.07859012 3.63025433 -5.984375 2.62109375 C-5.38109375 2.05261719 -4.7778125 1.48414063 -4.15625 0.8984375 C-2.234375 -0.31640625 -2.234375 -0.31640625 0 0 Z " fill="#E2E2E2" transform="translate(181.234375,53.31640625)"/>
<path d="M0 0 C0.66 0 1.32 0 2 0 C2 0.66 2 1.32 2 2 C2.99 2 3.98 2 5 2 C5 4.97 5 7.94 5 11 C4.67 9.68 4.34 8.36 4 7 C3.34 7 2.68 7 2 7 C1.67 7.99 1.34 8.98 1 10 C0.896875 9.38125 0.79375 8.7625 0.6875 8.125 C0.12474627 5.63473516 0.12474627 5.63473516 -3 4 C-3 3.34 -3 2.68 -3 2 C-2.01 2 -1.02 2 0 2 C0 1.34 0 0.68 0 0 Z " fill="#D7D7D7" transform="translate(131,246)"/>
<path d="M0 0 C1.32 0 2.64 0 4 0 C4 1.98 4 3.96 4 6 C1.64561267 7.42944945 0.51967567 8.08661261 -2.25 7.625 C-2.8275 7.41875 -3.405 7.2125 -4 7 C-3.67 5.68 -3.34 4.36 -3 3 C-2.01 3 -1.02 3 0 3 C0 2.01 0 1.02 0 0 Z " fill="#E3E3E3" transform="translate(55,228)"/>
<path d="M0 0 C0.33 0.99 0.66 1.98 1 3 C0.01 4.485 0.01 4.485 -1 6 C0.65 6 2.3 6 4 6 C4 4.02 4 2.04 4 0 C4.66 0.33 5.32 0.66 6 1 C6 3.97 6 6.94 6 10 C5.34 10 4.68 10 4 10 C4 9.34 4 8.68 4 8 C3.21625 8.04125 2.4325 8.0825 1.625 8.125 C-1 8 -1 8 -3 6 C-3 4.68 -3 3.36 -3 2 C-2.01 2 -1.02 2 0 2 C0 1.34 0 0.68 0 0 Z " fill="#202020" transform="translate(67,228)"/>
<path d="M0 0 C3.63 0 7.26 0 11 0 C10.67 0.66 10.34 1.32 10 2 C8.35 1.67 6.7 1.34 5 1 C5 4.3 5 7.6 5 11 C4.01 11 3.02 11 2 11 C2 7.7 2 4.4 2 1 C1.34 0.67 0.68 0.34 0 0 Z " fill="#484848" transform="translate(106,227)"/>
<path d="M0 0 C2.31 0 4.62 0 7 0 C7 0.66 7 1.32 7 2 C5.35 2 3.7 2 2 2 C2 2.99 2 3.98 2 5 C3.32 5.33 4.64 5.66 6 6 C4.68 6 3.36 6 2 6 C2 7.32 2 8.64 2 10 C3.65 10 5.3 10 7 10 C7 10.33 7 10.66 7 11 C4.69 11 2.38 11 0 11 C0 7.37 0 3.74 0 0 Z " fill="#111111" transform="translate(223,246)"/>
<path d="M0 0 C1.32 0 2.64 0 4 0 C4 2.97 4 5.94 4 9 C4.66 9.33 5.32 9.66 6 10 C4.35 10.33 2.7 10.66 1 11 C-0.20272819 8.59454362 -0.10071472 7.05003047 -0.0625 4.375 C-0.05347656 3.55773437 -0.04445312 2.74046875 -0.03515625 1.8984375 C-0.02355469 1.27195313 -0.01195312 0.64546875 0 0 Z " fill="#DEDEDE" transform="translate(145,248)"/>
<path d="M0 0 C1.32 0 2.64 0 4 0 C4 2.97 4 5.94 4 9 C2.02 9.33 0.04 9.66 -2 10 C-1.34 9.67 -0.68 9.34 0 9 C0 6.03 0 3.06 0 0 Z " fill="#D9D9D9" transform="translate(55,248)"/>
<path d="M0 0 C2.97 0.99 5.94 1.98 9 3 C9 3.33 9 3.66 9 4 C7.02 4.33 5.04 4.66 3 5 C2.67 5.99 2.34 6.98 2 8 C0.35 8 -1.3 8 -3 8 C-3 7.34 -3 6.68 -3 6 C-1.68 6 -0.36 6 1 6 C1 5.34 1 4.68 1 4 C-1.31 4 -3.62 4 -6 4 C-6 3.67 -6 3.34 -6 3 C-4.02 2.34 -2.04 1.68 0 1 C0 0.67 0 0.34 0 0 Z " fill="#E3E3E3" transform="translate(229,242)"/>
<path d="M0 0 C1.98 0 3.96 0 6 0 C6 0.66 6 1.32 6 2 C4.68 2 3.36 2 2 2 C2 2.66 2 3.32 2 4 C3.32 4 4.64 4 6 4 C6 4.66 6 5.32 6 6 C4.68 6 3.36 6 2 6 C2 7.65 2 9.3 2 11 C1.34 11 0.68 11 0 11 C0 7.37 0 3.74 0 0 Z " fill="#161616" transform="translate(200,246)"/>
<path d="M0 0 C2.0625 0.4375 2.0625 0.4375 4 1 C4.33 2.65 4.66 4.3 5 6 C3.02 6.99 3.02 6.99 1 8 C-1 6 -1 6 -1.1875 3.4375 C-1 1 -1 1 0 0 Z " fill="#E0E0E0" transform="translate(191,248)"/>
<path d="M0 0 C2.0625 0.4375 2.0625 0.4375 4 1 C4 2.65 4 4.3 4 6 C3.34 6 2.68 6 2 6 C2 6.99 2 7.98 2 9 C0 8 -2 7 -4 6 C-4 5.01 -4 4.02 -4 3 C-1.83125748 3.50603992 -0.00032373 3.99983813 2 5 C2 4.01 2 3.02 2 2 C1.01 1.67 0.02 1.34 -1 1 C-0.67 0.67 -0.34 0.34 0 0 Z " fill="#2A2A2A" transform="translate(116,232)"/>
<path d="M0 0 C0.99 0.33 1.98 0.66 3 1 C2.34 1 1.68 1 1 1 C0.67 2.65 0.34 4.3 0 6 C-0.66 6 -1.32 6 -2 6 C-1.505 6.45375 -1.01 6.9075 -0.5 7.375 C1 9 1 9 1 11 C-1.86207152 9.71700242 -4.0245088 8.469364 -6 6 C-6 5.01 -6 4.02 -6 3 C-5.01 3 -4.02 3 -3 3 C-1.31201173 1.56249809 -1.31201173 1.56249809 0 0 Z " fill="#323232" transform="translate(35,227)"/>
<path d="M0 0 C0.91007812 0.10183594 1.82015625 0.20367187 2.7578125 0.30859375 C3.45648438 0.39238281 4.15515625 0.47617188 4.875 0.5625 C4.545 1.5525 4.215 2.5425 3.875 3.5625 C3.875 2.9025 3.875 2.2425 3.875 1.5625 C1.235 1.5625 -1.405 1.5625 -4.125 1.5625 C-4.125 5.1925 -4.125 8.8225 -4.125 12.5625 C-4.785 12.5625 -5.445 12.5625 -6.125 12.5625 C-6.455 8.6025 -6.785 4.6425 -7.125 0.5625 C-4.50184968 -0.74907516 -2.89466564 -0.33399988 0 0 Z " fill="#0C0C0C" transform="translate(87.125,225.4375)"/>
<path d="M0 0 C0.66 0 1.32 0 2 0 C2 0.99 2 1.98 2 3 C2.99 3 3.98 3 5 3 C5.33 2.34 5.66 1.68 6 1 C8 4 8 4 8 7 C7.34 7 6.68 7 6 7 C6 6.34 6 5.68 6 5 C4.35 5 2.7 5 1 5 C1 5.66 1 6.32 1 7 C0.01 7 -0.98 7 -2 7 C-1.42415568 4.61435923 -0.77772405 2.33317216 0 0 Z " fill="#232323" transform="translate(88,250)"/>
<path d="M0 0 C1.4540625 0.0309375 1.4540625 0.0309375 2.9375 0.0625 C2.2775 1.3825 1.6175 2.7025 0.9375 4.0625 C1.5975 4.3925 2.2575 4.7225 2.9375 5.0625 C0.9575 5.7225 -1.0225 6.3825 -3.0625 7.0625 C-4.0625 6.0625 -4.0625 6.0625 -4.1875 3.5625 C-4.00295237 -0.12845252 -3.76342282 0.07680455 0 0 Z " fill="#F4F4F4" transform="translate(91.0625,238.9375)"/>
<path d="M0 0 C0.66 0 1.32 0 2 0 C2.66 4.62 3.32 9.24 4 14 C3.34 14 2.68 14 2 14 C0 11 0 11 0 8 C-0.99 7.67 -1.98 7.34 -3 7 C-3 6.34 -3 5.68 -3 5 C-2.34 4.67 -1.68 4.34 -1 4 C-0.34786708 1.97536745 -0.34786708 1.97536745 0 0 Z " fill="#DADADA" transform="translate(36,228)"/>
<path d="M0 0 C0.33 0 0.66 0 1 0 C1 3.63 1 7.26 1 11 C1.66 11 2.32 11 3 11 C3 11.66 3 12.32 3 13 C2.21625 12.814375 1.4325 12.62875 0.625 12.4375 C-1.97089775 11.74037734 -1.97089775 11.74037734 -4 13 C-5.67654729 12.72057545 -7.34608154 12.39171753 -9 12 C-9 11.67 -9 11.34 -9 11 C-6.69 10.34 -4.38 9.68 -2 9 C-1.34 6.03 -0.68 3.06 0 0 Z " fill="#C0C0C0" transform="translate(199,246)"/>
<path d="M0 0 C0.33 0 0.66 0 1 0 C1 1.65 1 3.3 1 5 C-0.65 5 -2.3 5 -4 5 C-4 5.66 -4 6.32 -4 7 C-3.34 7 -2.68 7 -2 7 C-2 7.99 -2 8.98 -2 10 C-3.32 9.67 -4.64 9.34 -6 9 C-6.04254356 7.00045254 -6.04080783 4.99958364 -6 3 C-5 2 -5 2 -2.4375 1.9375 C-1.2309375 1.9684375 -1.2309375 1.9684375 0 2 C0 1.34 0 0.68 0 0 Z " fill="#DCDCDC" transform="translate(253,246)"/>
<path d="M0 0 C1.65 0.33 3.3 0.66 5 1 C5 1.99 5 2.98 5 4 C5.33 4.33 5.66 4.66 6 5 C6.04080783 6.99958364 6.04254356 9.00045254 6 11 C4.5 9.6875 4.5 9.6875 3 8 C3 7.01 3 6.02 3 5 C1.68 5 0.36 5 -1 5 C-0.67 3.35 -0.34 1.7 0 0 Z " fill="#EDEDED" transform="translate(256,241)"/>
<path d="M0 0 C2.51083114 1.25541557 2.87125446 2.50063488 4 5 C6.31 5 8.62 5 11 5 C11 5.66 11 6.32 11 7 C10.38125 7.12375 9.7625 7.2475 9.125 7.375 C6.80879168 7.87197356 6.80879168 7.87197356 5 10 C5 9.34 5 8.68 5 8 C4.01 8.33 3.02 8.66 2 9 C0 7 0 7 -0.125 3.375 C-0.08375 2.26125 -0.0425 1.1475 0 0 Z " fill="#D8D8D8" transform="translate(31,251)"/>
<path d="M0 0 C2.64 0 5.28 0 8 0 C8 0.66 8 1.32 8 2 C7.01 2 6.02 2 5 2 C5 4.97 5 7.94 5 11 C4.34 11 3.68 11 3 11 C3 8.03 3 5.06 3 2 C2.01 2 1.02 2 0 2 C0 1.34 0 0.68 0 0 Z " fill="#080808" transform="translate(133,246)"/>
<path d="M0 0 C0.33 0 0.66 0 1 0 C1 3.3 1 6.6 1 10 C1.99 10 2.98 10 4 10 C4 9.34 4 8.68 4 8 C4.99 8.33 5.98 8.66 7 9 C6.01 9.495 6.01 9.495 5 10 C5 10.66 5 11.32 5 12 C4.01 12.33 3.02 12.66 2 13 C0.68 11.68 -0.64 10.36 -2 9 C-1.67 8.01 -1.34 7.02 -1 6 C-1.38932856 3.85744207 -1.38932856 3.85744207 -2 2 C-1.34 2 -0.68 2 0 2 C0 1.34 0 0.68 0 0 Z " fill="#DCDCDC" transform="translate(239,247)"/>
<path d="M0 0 C1.32 0 2.64 0 4 0 C4 2.31 4 4.62 4 7 C2.35 7 0.7 7 -1 7 C-1.04254356 5.00045254 -1.04080783 2.99958364 -1 1 C-0.67 0.67 -0.34 0.34 0 0 Z " fill="#E6E6E6" transform="translate(67,248)"/>
<path d="M0 0 C2.64 0 5.28 0 8 0 C8 0.66 8 1.32 8 2 C7.01 2 6.02 2 5 2 C5 4.97 5 7.94 5 11 C4.34 11 3.68 11 3 11 C3 8.03 3 5.06 3 2 C2.01 2 1.02 2 0 2 C0 1.34 0 0.68 0 0 Z " fill="#151515" transform="translate(146,246)"/>
<path d="M0 0 C2.64 0 5.28 0 8 0 C8 0.66 8 1.32 8 2 C7.01 2 6.02 2 5 2 C5 4.97 5 7.94 5 11 C4.34 11 3.68 11 3 11 C3 8.03 3 5.06 3 2 C2.01 2 1.02 2 0 2 C0 1.34 0 0.68 0 0 Z " fill="#090909" transform="translate(50,246)"/>
<path d="M0 0 C3.73487777 0.4979837 5.81237635 0.87491756 9 3 C8.01 3 7.02 3 6 3 C5.67 4.65 5.34 6.3 5 8 C4.34 8 3.68 8 3 8 C2.67 8.66 2.34 9.32 2 10 C1.34 9.67 0.68 9.34 0 9 C0 8.34 0 7.68 0 7 C1.32 7 2.64 7 4 7 C4 6.01 4 5.02 4 4 C3.01 4 2.02 4 1 4 C0.67 2.68 0.34 1.36 0 0 Z " fill="#F2F2F2" transform="translate(234,241)"/>
<path d="M0 0 C1.0725 0.33 2.145 0.66 3.25 1 C6.99731601 2.1717751 6.99731601 2.1717751 11 2 C11 2.99 11 3.98 11 5 C8.36 5.33 5.72 5.66 3 6 C3 5.34 3 4.68 3 4 C2.34 3.67 1.68 3.34 1 3 C0.67 2.01 0.34 1.02 0 0 Z " fill="#999999" transform="translate(136,226)"/>
<path d="M0 0 C3.48897679 0.64610681 6.06769549 2.01871317 9 4 C9.33 4.66 9.66 5.32 10 6 C9.34 6 8.68 6 8 6 C7.67 7.32 7.34 8.64 7 10 C5.83043409 8.52312468 4.66441854 7.04343707 3.5 5.5625 C2.8503125 4.73878906 2.200625 3.91507812 1.53125 3.06640625 C0 1 0 1 0 0 Z " fill="#0C0C0C" transform="translate(75,118)"/>
<path d="M0 0 C0 0.66 0 1.32 0 2 C-1.65 2.33 -3.3 2.66 -5 3 C-5.33 4.65 -5.66 6.3 -6 8 C-6.99 8.33 -7.98 8.66 -9 9 C-9 6.69 -9 4.38 -9 2 C-5.86501708 0.14223235 -3.62528568 -0.20140476 0 0 Z " fill="#262626" transform="translate(253,246)"/>
<path d="M0 0 C4.29 0 8.58 0 13 0 C13 0.33 13 0.66 13 1 C10.36 1 7.72 1 5 1 C5 1.99 5 2.98 5 4 C3.35 4 1.7 4 0 4 C0.33 4.99 0.66 5.98 1 7 C0.01 7 -0.98 7 -2 7 C-2 5.68 -2 4.36 -2 3 C-0.68 3 0.64 3 2 3 C2 2.34 2 1.68 2 1 C1.34 0.67 0.68 0.34 0 0 Z " fill="#131313" transform="translate(115,226)"/>
<path d="M0 0 C1.65 0 3.3 0 5 0 C4.01 0.33 3.02 0.66 2 1 C2 2.32 2 3.64 2 5 C3.65 5.33 5.3 5.66 7 6 C7 6.99 7 7.98 7 9 C5.02 8.34 3.04 7.68 1 7 C0.67 7.99 0.34 8.98 0 10 C0 6.7 0 3.4 0 0 Z " fill="#D3D3D3" transform="translate(111,228)"/>
<path d="M0 0 C1.32 0.33 2.64 0.66 4 1 C4.33 2.65 4.66 4.3 5 6 C3.35 6.33 1.7 6.66 0 7 C0 4.69 0 2.38 0 0 Z " fill="#D9D9D9" transform="translate(214,248)"/>
<path d="M0 0 C0.66 0 1.32 0 2 0 C2 3.63 2 7.26 2 11 C0.68 10.67 -0.64 10.34 -2 10 C-2.33 8.68 -2.66 7.36 -3 6 C-2.01 6.33 -1.02 6.66 0 7 C0 4.69 0 2.38 0 0 Z " fill="#262626" transform="translate(83,246)"/>
<path d="M0 0 C1.98 1.65 3.96 3.3 6 5 C5.01 5.99 4.02 6.98 3 8 C1.0625 7.25 1.0625 7.25 -1 6 C-1.75 3.875 -1.75 3.875 -2 2 C-1.34 2 -0.68 2 0 2 C0 1.34 0 0.68 0 0 Z " fill="#E4E4E4" transform="translate(29,233)"/>
<path d="M0 0 C0.66 0 1.32 0 2 0 C2 0.66 2 1.32 2 2 C4.64 1.67 7.28 1.34 10 1 C7 3 7 3 4 3 C4 3.66 4 4.32 4 5 C4.99 5.33 5.98 5.66 7 6 C7 6.66 7 7.32 7 8 C4.24542282 7.62005832 3.17979426 7.1926367 1.25 5.125 C0 3 0 3 0 0 Z " fill="#232323" transform="translate(137,230)"/>
<path d="M0 0 C1.32 1.32 2.64 2.64 4 4 C2.515 6.475 2.515 6.475 1 9 C-0.65 7.35 -2.3 5.7 -4 4 C-3.01 3.67 -2.02 3.34 -1 3 C-1.33 2.34 -1.66 1.68 -2 1 C-1.34 0.67 -0.68 0.34 0 0 Z " fill="#E7E7E7" transform="translate(94,241)"/>
<path d="M0 0 C1.85772162 0.08984301 3.71247985 0.24611861 5.5625 0.4375 C7.08037109 0.59025391 7.08037109 0.59025391 8.62890625 0.74609375 C9.80259766 0.87177734 9.80259766 0.87177734 11 1 C11 1.33 11 1.66 11 2 C7.7 2 4.4 2 1 2 C1 2.66 1 3.32 1 4 C-0.65 4 -2.3 4 -4 4 C-4 3.34 -4 2.68 -4 2 C-5.65 2 -7.3 2 -9 2 C-9 1.67 -9 1.34 -9 1 C-7.700625 1.020625 -6.40125 1.04125 -5.0625 1.0625 C-3.70834367 1.08399454 -2.35243917 1.07148199 -1 1 C-0.67 0.67 -0.34 0.34 0 0 Z " fill="#464646" transform="translate(92,226)"/>
<path d="M0 0 C0.99 0 1.98 0 3 0 C4.04449911 3.13349732 3.93423645 3.98968256 3 7 C0.69 7 -1.62 7 -4 7 C-3.34 6.34 -2.68 5.68 -2 5 C-1.29289322 3.35008418 -0.62056011 1.68437744 0 0 Z " fill="#F5F5F5" transform="translate(51,218)"/>
<path d="M0 0 C1.875 0.1875 1.875 0.1875 4 1 C5.25 3.5625 5.25 3.5625 6 6 C4.35 6.33 2.7 6.66 1 7 C0.67 4.69 0.34 2.38 0 0 Z " fill="#4F4F4F" transform="translate(89,246)"/>
<path d="M0 0 C3 1 3 1 4 3 C3.01 3 2.02 3 1 3 C1 6.63 1 10.26 1 14 C1.66 14.33 2.32 14.66 3 15 C2.01 15 1.02 15 0 15 C-0.19448477 12.87562788 -0.38038289 10.75046809 -0.5625 8.625 C-0.66691406 7.44164062 -0.77132812 6.25828125 -0.87890625 5.0390625 C-1 2 -1 2 0 0 Z M-4 3 C-3.01 3 -2.02 3 -1 3 C-1 3.66 -1 4.32 -1 5 C-1.99 4.67 -2.98 4.34 -4 4 C-4 3.67 -4 3.34 -4 3 Z " fill="#B1B1B1" transform="translate(75,243)"/>
<path d="M0 0 C1.98 0 3.96 0 6 0 C6 0.99 6 1.98 6 3 C4.68 2.67 3.36 2.34 2 2 C2.33 3.32 2.66 4.64 3 6 C2.34 6 1.68 6 1 6 C1 7.65 1 9.3 1 11 C0.34 10.67 -0.32 10.34 -1 10 C-0.67 6.7 -0.34 3.4 0 0 Z " fill="#CFCFCF" transform="translate(149,228)"/>
<path d="M0 0 C2.97 0 5.94 0 9 0 C9 0.66 9 1.32 9 2 C6.69 2 4.38 2 2 2 C1.67 4.64 1.34 7.28 1 10 C0.67 10 0.34 10 0 10 C0 6.7 0 3.4 0 0 Z " fill="#DEDEDE" transform="translate(175,228)"/>
<path d="M0 0 C1.65 1.65 3.3 3.3 5 5 C4.67 5.99 4.34 6.98 4 8 C2.02 8.33 0.04 8.66 -2 9 C-1.41196203 5.97580475 -0.77321882 2.98241547 0 0 Z " fill="#E3E3E3" transform="translate(66,108)"/>
<path d="M0 0 C0.33 0 0.66 0 1 0 C1 3.96 1 7.92 1 12 C0.01 11.67 -0.98 11.34 -2 11 C-2.33 11.66 -2.66 12.32 -3 13 C-3 12.34 -3 11.68 -3 11 C-3.66 11 -4.32 11 -5 11 C-5 10.34 -5 9.68 -5 9 C-5.99 8.67 -6.98 8.34 -8 8 C-6.02 8 -4.04 8 -2 8 C-2 8.66 -2 9.32 -2 10 C-1.34 10 -0.68 10 0 10 C0 6.7 0 3.4 0 0 Z " fill="#C7C7C7" transform="translate(170,228)"/>
<path d="M0 0 C1.32 0.33 2.64 0.66 4 1 C4 2.32 4 3.64 4 5 C4.99 5.33 5.98 5.66 7 6 C7 6.66 7 7.32 7 8 C4.24542282 7.62005832 3.17979426 7.1926367 1.25 5.125 C0 3 0 3 0 0 Z " fill="#303030" transform="translate(151,230)"/>
<path d="M0 0 C0.33 0 0.66 0 1 0 C1 2.97 1 5.94 1 9 C0.34 9 -0.32 9 -1 9 C-1 7.02 -1 5.04 -1 3 C-1.99 3 -2.98 3 -4 3 C-4 3.66 -4 4.32 -4 5 C-4.99 4.67 -5.98 4.34 -7 4 C-7 3.34 -7 2.68 -7 2 C-4.69 2 -2.38 2 0 2 C0 1.34 0 0.68 0 0 Z " fill="#0E0E0E" transform="translate(185,229)"/>
<path d="M0 0 C0.99 0 1.98 0 3 0 C3.6875 3.3125 3.6875 3.3125 4 7 C2.625 8.9375 2.625 8.9375 1 10 C0.67 10 0.34 10 0 10 C0 6.7 0 3.4 0 0 Z " fill="#C5C5C5" transform="translate(40,228)"/>
<path d="M0 0 C-0.639375 0.12375 -1.27875 0.2475 -1.9375 0.375 C-2.618125 0.58125 -3.29875 0.7875 -4 1 C-4.33 1.66 -4.66 2.32 -5 3 C-10.75 3.125 -10.75 3.125 -13 2 C-13 1.34 -13 0.68 -13 0 C-4.57142857 -1.28571429 -4.57142857 -1.28571429 0 0 Z " fill="#737373" transform="translate(59,227)"/>
<path d="M0 0 C1.98 0.495 1.98 0.495 4 1 C3.814375 1.556875 3.62875 2.11375 3.4375 2.6875 C2.92448835 5.399133 3.3359276 7.34371039 4 10 C3.34 10 2.68 10 2 10 C1.87625 9.360625 1.7525 8.72125 1.625 8.0625 C1.315625 7.0415625 1.315625 7.0415625 1 6 C0.34 5.67 -0.32 5.34 -1 5 C-0.67 3.35 -0.34 1.7 0 0 Z " fill="#FBFBFB" transform="translate(157,240)"/>
<path d="M0 0 C0.33 0 0.66 0 1 0 C1 3.63 1 7.26 1 11 C0.01 11 -0.98 11 -2 11 C-2.33 11.66 -2.66 12.32 -3 13 C-3.66 12.01 -4.32 11.02 -5 10 C-4.34 10 -3.68 10 -3 10 C-3.33 9.01 -3.66 8.02 -4 7 C-3.34 6.01 -2.68 5.02 -2 4 C-2 5.98 -2 7.96 -2 10 C-1.34 10 -0.68 10 0 10 C0 6.7 0 3.4 0 0 Z " fill="#B8B8B8" transform="translate(105,228)"/>
<path d="M0 0 C2.00720923 0.28674418 4.0085944 0.61866701 6 1 C6 1.66 6 2.32 6 3 C5.34 3 4.68 3 4 3 C3.67 3.99 3.34 4.98 3 6 C3 5.01 3 4.02 3 3 C2.01 3 1.02 3 0 3 C0 3.66 0 4.32 0 5 C-0.66 5 -1.32 5 -2 5 C-1.125 1.125 -1.125 1.125 0 0 Z " fill="#3E3E3E" transform="translate(56,219)"/>
<path d="M0 0 C0.99 0 1.98 0 3 0 C3 5.28 3 10.56 3 16 C2.67 16 2.34 16 2 16 C1.92652344 14.84371094 1.92652344 14.84371094 1.8515625 13.6640625 C1.77679688 12.66117188 1.70203125 11.65828125 1.625 10.625 C1.55539063 9.62726563 1.48578125 8.62953125 1.4140625 7.6015625 C1.23636036 4.84491121 1.23636036 4.84491121 -1 3 C-0.67 2.01 -0.34 1.02 0 0 Z " fill="#F5F5F5" transform="translate(252,241)"/>
<path d="M0 0 C1.70840281 1.63412443 2.93453047 2.86906094 4 5 C7.02934491 5.65772428 7.02934491 5.65772428 10 6 C10 6.33 10 6.66 10 7 C3.375 7.125 3.375 7.125 0 6 C0 4.02 0 2.04 0 0 Z " fill="#B9B9B9" transform="translate(78,251)"/>
<path d="M0 0 C0.66 0 1.32 0 2 0 C2 3.3 2 6.6 2 10 C1.01 10.33 0.02 10.66 -1 11 C-0.67 7.37 -0.34 3.74 0 0 Z " fill="#1A1A1A" transform="translate(162,246)"/>
<path d="M0 0 C1.98 0 3.96 0 6 0 C6 1.65 6 3.3 6 5 C3 5 3 5 1.3125 3.625 C0 2 0 2 0 0 Z " fill="#C2C2C2" transform="translate(141,233)"/>
<path d="M0 0 C2.375 -0.1875 2.375 -0.1875 5 0 C5.66 0.99 6.32 1.98 7 3 C6.01 3.99 5.02 4.98 4 6 C2.62437146 4.71034824 1.29233607 3.37310707 0 2 C0 1.34 0 0.68 0 0 Z " fill="#D5D5D5" transform="translate(155,233)"/>
<path d="M0 0 C0.66 0 1.32 0 2 0 C2 3.3 2 6.6 2 10 C1.34 10 0.68 10 0 10 C0 8.35 0 6.7 0 5 C-0.99 4.67 -1.98 4.34 -3 4 C-2.01 4 -1.02 4 0 4 C0 2.68 0 1.36 0 0 Z " fill="#0F0F0F" transform="translate(147,228)"/>
<path d="M0 0 C0.66 1.32 1.32 2.64 2 4 C1.01 4.33 0.02 4.66 -1 5 C-1.33 5.66 -1.66 6.32 -2 7 C-5 7 -5 7 -7 6 C-4.69 4.02 -2.38 2.04 0 0 Z " fill="#DCDCDC" transform="translate(242,183)"/>
<path d="M0 0 C1.99097846 2.98646769 2.94124926 5.59687262 4 9 C1 9 1 9 -1 8 C-1.04241723 5.66705225 -1.04092937 3.33297433 -1 1 C-0.67 0.67 -0.34 0.34 0 0 Z " fill="#434343" transform="translate(188,247)"/>
<path d="M0 0 C2.97 0 5.94 0 9 0 C9 1.98 9 3.96 9 6 C8.67 6 8.34 6 8 6 C8 4.35 8 2.7 8 1 C7.4225 1.350625 6.845 1.70125 6.25 2.0625 C3.64198224 3.14917407 2.60582371 2.93065133 0 2 C0 1.34 0 0.68 0 0 Z " fill="#0B0B0B" transform="translate(121,231)"/>
<path d="M0 0 C0.99 0 1.98 0 3 0 C3.33 1.65 3.66 3.3 4 5 C3.01 4.67 2.02 4.34 1 4 C1 6.31 1 8.62 1 11 C0.67 11 0.34 11 0 11 C0 7.37 0 3.74 0 0 Z " fill="#0B0B0B" transform="translate(256,246)"/>
<path d="M0 0 C2.96175123 0.61277612 4.38058783 1.25372522 7 3 C2.545 3.495 2.545 3.495 -2 4 C-1.34 2.68 -0.68 1.36 0 0 Z " fill="#E4E4E4" transform="translate(52,241)"/>
<path d="M0 0 C0.66 0 1.32 0 2 0 C2 1.98 2 3.96 2 6 C0.35 6 -1.3 6 -3 6 C-2 4 -1 2 0 0 Z " fill="#D0D0D0" transform="translate(166,228)"/>
<path d="M0 0 C2.475 0.99 2.475 0.99 5 2 C5 2.66 5 3.32 5 4 C3.35 4.33 1.7 4.66 0 5 C-0.5625 3.0625 -0.5625 3.0625 -1 1 C-0.67 0.67 -0.34 0.34 0 0 Z " fill="#5B5B5B" transform="translate(44,230)"/>
<path d="M0 0 C0.66 0.33 1.32 0.66 2 1 C2 3.97 2 6.94 2 10 C1.34 10 0.68 10 0 10 C-1.2380014 6.42355152 -0.74926071 3.66305234 0 0 Z " fill="#080808" transform="translate(71,228)"/>
<path d="M0 0 C0.33 0.66 0.66 1.32 1 2 C2.65 1.67 4.3 1.34 6 1 C6.33 2.65 6.66 4.3 7 6 C3.62496331 4.8141763 1.35277269 3.72426311 -1 1 C-0.67 0.67 -0.34 0.34 0 0 Z " fill="#CCCCCC" transform="translate(228,71)"/>
<path d="M0 0 C0 3 0 3 -2 6 C-4.99332739 5.0022242 -5.94766315 4.2477975 -8 2 C-6.865625 1.855625 -5.73125 1.71125 -4.5625 1.5625 C-1.19222799 1.38828522 -1.19222799 1.38828522 0 0 Z " fill="#D6D6D6" transform="translate(73,255)"/>
<path d="M0 0 C0 0.66 0 1.32 0 2 C-2 3.625 -2 3.625 -4 5 C-5.32 4.34 -6.64 3.68 -8 3 C-5.53387212 -0.1151089 -3.89156016 -0.31553191 0 0 Z " fill="#EBEBEB" transform="translate(94,255)"/>
<path d="M0 0 C2.97 0.33 5.94 0.66 9 1 C9 1.33 9 1.66 9 2 C4.05 3.485 4.05 3.485 -1 5 C-0.67 3.35 -0.34 1.7 0 0 Z " fill="#D4D4D4" transform="translate(244,244)"/>
<path d="M0 0 C-0.33 0.99 -0.66 1.98 -1 3 C-1.66 3 -2.32 3 -3 3 C-3 2.34 -3 1.68 -3 1 C-5.97 0.505 -5.97 0.505 -9 0 C-9 -0.33 -9 -0.66 -9 -1 C-5.22102349 -2.0497157 -3.35080929 -2.10976881 0 0 Z " fill="#D6D6D6" transform="translate(200,246)"/>
<path d="M0 0 C0 2.31 0 4.62 0 7 C-0.99 7.495 -0.99 7.495 -2 8 C-2.12375 7.195625 -2.2475 6.39125 -2.375 5.5625 C-2.684375 4.2940625 -2.684375 4.2940625 -3 3 C-3.66 2.67 -4.32 2.34 -5 2 C-1.125 0 -1.125 0 0 0 Z " fill="#F3F3F3" transform="translate(183,233)"/>
<path d="M0 0 C3.96 0 7.92 0 12 0 C12 0.33 12 0.66 12 1 C9.36 1 6.72 1 4 1 C4 1.66 4 2.32 4 3 C3.01 3.33 2.02 3.66 1 4 C0.67 2.68 0.34 1.36 0 0 Z " fill="#040404" transform="translate(42,226)"/>
<path d="M0 0 C0.66 0.66 1.32 1.32 2 2 C1.34 2 0.68 2 0 2 C-0.33 2.99 -0.66 3.98 -1 5 C-2.32 4.34 -3.64 3.68 -5 3 C-5 2.34 -5 1.68 -5 1 C-2.625 0.375 -2.625 0.375 0 0 Z " fill="#909090" transform="translate(150,219)"/>
<path d="M0 0 C0.33 1.32 0.66 2.64 1 4 C1.66 4 2.32 4 3 4 C2.34 5.32 1.68 6.64 1 8 C-0.65 7.67 -2.3 7.34 -4 7 C-2.68 6.67 -1.36 6.34 0 6 C0 4.02 0 2.04 0 0 Z " fill="#474747" transform="translate(71,249)"/>
<path d="M0 0 C1.2065625 0.0309375 1.2065625 0.0309375 2.4375 0.0625 C2.7675 0.7225 3.0975 1.3825 3.4375 2.0625 C2.014375 2.495625 2.014375 2.495625 0.5625 2.9375 C-2.61461578 3.83075109 -2.61461578 3.83075109 -4.5625 6.0625 C-3.48963568 0.08511307 -3.48963568 0.08511307 0 0 Z " fill="#131313" transform="translate(192.5625,245.9375)"/>
<path d="M0 0 C0.66 0 1.32 0 2 0 C2 1.98 2 3.96 2 6 C0.35 6 -1.3 6 -3 6 C-3 5.34 -3 4.68 -3 4 C-2.01 4 -1.02 4 0 4 C0 2.68 0 1.36 0 0 Z " fill="#CCCCCC" transform="translate(69,228)"/>
<path d="M0 0 C0.66 0 1.32 0 2 0 C1.67 1.65 1.34 3.3 1 5 C-1.31 5.33 -3.62 5.66 -6 6 C-2.25 3 -2.25 3 0 3 C0 2.01 0 1.02 0 0 Z " fill="#EFEFEF" transform="translate(133,253)"/>
<path d="M0 0 C0.66 0 1.32 0 2 0 C2.33 1.32 2.66 2.64 3 4 C2.34 4 1.68 4 1 4 C1 6.31 1 8.62 1 11 C0.67 11 0.34 11 0 11 C0 7.37 0 3.74 0 0 Z " fill="#050505" transform="translate(76,246)"/>
<path d="M0 0 C1.32 0 2.64 0 4 0 C4 1.98 4 3.96 4 6 C2.68 5.34 1.36 4.68 0 4 C0 2.68 0 1.36 0 0 Z " fill="#F7F7F7" transform="translate(48,248)"/>
<path d="M0 0 C0.66 0 1.32 0 2 0 C2 0.66 2 1.32 2 2 C2.66 2.33 3.32 2.66 4 3 C0.04 3 -3.92 3 -8 3 C-8 2.67 -8 2.34 -8 2 C-6.865625 1.855625 -5.73125 1.71125 -4.5625 1.5625 C-1.19222799 1.38828522 -1.19222799 1.38828522 0 0 Z " fill="#CFCFCF" transform="translate(154,243)"/>
<path d="M0 0 C2.97 0.495 2.97 0.495 6 1 C5.67 1.66 5.34 2.32 5 3 C2.4375 3.625 2.4375 3.625 0 4 C0 2.68 0 1.36 0 0 Z " fill="#FBFBFB" transform="translate(88,242)"/>
<path d="M0 0 C2.9375 0.375 2.9375 0.375 6 1 C6.33 1.66 6.66 2.32 7 3 C4.69 3 2.38 3 0 3 C0 2.01 0 1.02 0 0 Z " fill="#E9E9E9" transform="translate(84,222)"/>
<path d="M0 0 C1.32 0.99 2.64 1.98 4 3 C3.67 3.66 3.34 4.32 3 5 C2.01 5 1.02 5 0 5 C-0.5625 3.0625 -0.5625 3.0625 -1 1 C-0.67 0.67 -0.34 0.34 0 0 Z " fill="#D0D0D0" transform="translate(74,118)"/>
</svg>
