<?xml version="1.0" encoding="UTF-8"?>
<svg version="1.1" xmlns="http://www.w3.org/2000/svg" width="640" height="343">
<path d="M0 0 C211.2 0 422.4 0 640 0 C640 113.19 640 226.38 640 343 C428.8 343 217.6 343 0 343 C0 229.81 0 116.62 0 0 Z " fill="#000000" transform="translate(0,0)"/>
<path d="M0 0 C2.05165556 0.95825829 3.80351752 2.03374285 5.64453125 3.3515625 C6.3096875 3.81433594 6.97484375 4.27710937 7.66015625 4.75390625 C22.28096473 16.16594951 25.56363866 35.62223037 27.83300781 52.90185547 C28.34391146 57.08629194 28.70203959 61.13101147 28.64453125 65.3515625 C30.62453125 65.3515625 32.60453125 65.3515625 34.64453125 65.3515625 C34.68578125 64.2171875 34.72703125 63.0828125 34.76953125 61.9140625 C35.60889944 55.50537298 38.96644616 50.60134224 43.8671875 46.484375 C50.17814444 42.08040171 55.88906745 40.57887791 63.64453125 41.3515625 C68.00083599 42.29998309 71.51655337 43.80535016 74.64453125 47.0390625 C77.03149491 50.99247105 77.53259609 53.90286034 76.64453125 58.3515625 C74.64481339 64.50363568 70.82641292 69.51133124 65.64453125 73.3515625 C62.39032581 74.96203789 59.09662376 76.23327901 55.64453125 77.3515625 C56.95348845 80.47353728 56.95348845 80.47353728 59.64453125 82.3515625 C64.59935219 82.89516696 68.51578977 82.91593324 73.01953125 80.6640625 C77.66695605 76.56990255 79.98791687 72.93881541 81.83203125 67.0390625 C84.57814729 59.51709248 88.8279031 55.48870847 95.42578125 51.19140625 C98.73652507 49.93821977 102.08271613 49.79933601 105.58203125 49.6015625 C106.28521484 49.54613281 106.98839844 49.49070313 107.71289062 49.43359375 C111.87825334 49.17594245 114.93758034 49.38825146 118.64453125 51.3515625 C120.45703125 52.9765625 120.45703125 52.9765625 121.64453125 54.3515625 C120.65774624 57.04279435 120.07798052 58.13716824 117.46484375 59.4296875 C114.35833524 60.44511133 111.45159286 60.85204302 108.20703125 61.2265625 C102.8973799 61.9893744 99.64640312 62.78232543 95.64453125 66.3515625 C93.53934725 69.5093385 93.39163781 70.30553384 93.45703125 73.9140625 C93.46347656 74.69910156 93.46992188 75.48414063 93.4765625 76.29296875 C93.52089036 78.41510922 93.52089036 78.41510922 94.64453125 80.3515625 C97.38578775 81.1071057 97.38578775 81.1071057 100.64453125 80.3515625 C103.03917893 77.57707416 104.80960991 74.51336507 106.64453125 71.3515625 C106.97453125 71.0215625 107.30453125 70.6915625 107.64453125 70.3515625 C110.34561629 70.4424785 113.01383436 70.58897016 115.70703125 70.7890625 C116.46564453 70.84126953 117.22425781 70.89347656 118.00585938 70.94726562 C119.88574847 71.07732085 121.7651881 71.21384288 123.64453125 71.3515625 C126.46642189 67.0526823 128.94272588 62.78302945 131.08203125 58.1015625 C133.2755884 53.71444819 134.94274367 51.26710559 139.64453125 49.3515625 C146.88921164 48.30708404 152.56834326 49.28244113 158.64453125 53.3515625 C160.35203105 54.63218735 162.03825056 55.94606689 163.64453125 57.3515625 C164.09183594 56.88105469 164.53914062 56.41054687 165 55.92578125 C172.923644 47.76561056 172.923644 47.76561056 178.51953125 46.9140625 C182.5460943 47.47778133 185.58011186 48.71215149 188.64453125 51.3515625 C190.53240544 54.41835774 191.70294126 57.65047845 192.89453125 61.0390625 C193.219375 61.89951172 193.54421875 62.75996094 193.87890625 63.64648438 C195.73126697 68.60229623 197.41520252 73.60751609 199.02246094 78.64770508 C199.5116002 80.35920412 199.5116002 80.35920412 200.64453125 81.3515625 C203.98410433 81.65299166 203.98410433 81.65299166 207.64453125 80.3515625 C211.89543511 76.21021802 214.06905887 70.47649695 216.45629883 65.14477539 C220.30433428 56.56719552 224.32327286 48.27595867 232.6328125 43.1171875 C237.12467842 41.40766183 241.9629332 41.70185416 246.39453125 43.4140625 C252.29870117 48.49820882 255.44934736 54.63136094 256.05859375 62.4375 C256.13726816 63.86675174 256.20746676 65.2964932 256.26953125 66.7265625 C256.30820312 67.46261719 256.346875 68.19867188 256.38671875 68.95703125 C256.48011123 70.75483656 256.56336835 72.55316358 256.64453125 74.3515625 C257.5365625 74.38894531 258.42859375 74.42632812 259.34765625 74.46484375 C260.518125 74.53058594 261.68859375 74.59632813 262.89453125 74.6640625 C264.0546875 74.72207031 265.21484375 74.78007812 266.41015625 74.83984375 C269.75272763 75.36868053 271.19423695 76.08928583 273.64453125 78.3515625 C273.31453125 79.3415625 272.98453125 80.3315625 272.64453125 81.3515625 C269.10617571 82.94382249 265.90130864 83.4281472 262.08203125 83.6640625 C257.3766157 84.1267617 255.73699679 85.70403904 252.64453125 89.3515625 C249.46899463 92.89378926 246.67991316 95.88591398 241.9296875 96.97265625 C236.44156317 97.22108986 232.3250808 96.5043352 228.08203125 92.9140625 C224.54875641 89.07354637 222.64453125 85.69845254 222.64453125 80.3515625 C218.54980182 82.51386699 216.14703629 84.93958417 213.26953125 88.5390625 C209.12015467 93.21567009 209.12015467 93.21567009 205.14453125 94.3515625 C193.77262972 91.10244778 189.33485993 82.92611172 183.64453125 73.3515625 C182.33597794 71.33344546 180.99488529 69.34219677 179.64453125 67.3515625 C177.63312399 67.86857577 177.63312399 67.86857577 175.64453125 69.3515625 C174.4254263 72.50112245 174.4254263 72.50112245 173.64453125 76.1640625 C172.45723983 81.1941498 171.32402826 84.62993384 167.64453125 88.3515625 C164.89453125 88.6640625 164.89453125 88.6640625 162.64453125 88.3515625 C162.25265625 87.1140625 161.86078125 85.8765625 161.45703125 84.6015625 C160.15473583 80.71924785 158.7311359 76.90241608 157.20703125 73.1015625 C156.81644531 72.12703125 156.42585937 71.1525 156.0234375 70.1484375 C154.53482955 67.12905141 152.93790762 64.81465743 150.64453125 62.3515625 C147.20116351 61.02607418 147.20116351 61.02607418 143.64453125 61.3515625 C138.77265483 65.66021621 137.99344846 71.72110982 136.58203125 77.7890625 C133.64797002 90.15570256 133.64797002 90.15570256 130.64453125 95.3515625 C126.53113492 95.22691413 124.71744273 93.6754981 121.95703125 90.8515625 C121.37566406 90.2225 120.79429687 89.5934375 120.1953125 88.9453125 C118.16289821 86.85658447 116.89240435 86.39877642 114.01953125 85.8515625 C109.52567669 86.51731873 107.59039675 88.64186594 104.37890625 91.72265625 C102.24271866 93.72894054 101.05042048 94.29067912 98.14453125 94.7265625 C93.79736303 94.26079448 90.87542184 92.58714009 87.109375 90.4453125 C84.31314017 89.20451099 82.67061831 88.96790645 79.64453125 89.3515625 C77.44467395 90.42987811 77.44467395 90.42987811 75.26953125 91.8515625 C68.58942462 95.3463866 62.01461225 95.34072629 54.64453125 94.3515625 C48.17010762 92.26674071 43.67975101 87.77856814 39.078125 82.92578125 C35.50817091 80.61648511 32.84411663 81.09156718 28.64453125 81.3515625 C28.43884521 82.08568359 28.23315918 82.81980469 28.02124023 83.57617188 C14.55892589 131.25971169 14.55892589 131.25971169 -1.35546875 142.3515625 C-1.97421875 142.7846875 -2.59296875 143.2178125 -3.23046875 143.6640625 C-8.39543012 146.56935327 -13.62195843 146.75781218 -19.41796875 146.8515625 C-20.55177979 146.87947876 -20.55177979 146.87947876 -21.70849609 146.90795898 C-28.39176124 146.83308664 -33.48568879 144.81500194 -38.5625 140.45703125 C-46.2177025 131.31176501 -48.25707324 122.21732162 -47.35546875 110.3515625 C-45.29368663 99.78492913 -40.02657329 92.61728621 -31.35546875 86.3515625 C-23.70335354 81.83387536 -15.52099388 78.09854568 -7.078125 75.3359375 C-5.14260926 74.47772065 -5.14260926 74.47772065 -4.6015625 72.2421875 C-4.52035156 71.61828125 -4.43914062 70.994375 -4.35546875 70.3515625 C-4.85175781 69.9390625 -5.34804688 69.5265625 -5.859375 69.1015625 C-16.81120987 59.79146379 -28.18680363 46.04636976 -29.57055664 31.01513672 C-29.69564253 28.29053863 -29.7266649 25.57892234 -29.73046875 22.8515625 C-29.75496094 21.92730469 -29.77945312 21.00304687 -29.8046875 20.05078125 C-29.8293838 14.29654429 -29.29530456 10.84931212 -25.35546875 6.3515625 C-23.28515625 4.48828125 -23.28515625 4.48828125 -21.23046875 3.0390625 C-20.54726563 2.54792969 -19.8640625 2.05679688 -19.16015625 1.55078125 C-13.7526872 -2.04249364 -6.13420122 -1.68868558 0 0 Z " fill="#F8F8F8" transform="translate(330.35546875,83.6484375)"/>
<path d="M0 0 C4.18999088 4.18999088 7.12707471 8.05842876 7.59375 14.171875 C6.82198472 21.94465394 1.60921052 27.67540068 -3.953125 32.68359375 C-5.87016333 34.37380328 -5.87016333 34.37380328 -6.625 37.375 C2.96175039 37.375 8.73314849 32.91849762 15.37988281 26.41259766 C18.31683047 23.45506082 21.24337039 20.49273989 24.09765625 17.45507812 C28.75056779 12.60426392 33.32675715 9.29669336 39.375 6.375 C40.220625 5.941875 41.06625 5.50875 41.9375 5.0625 C48.94057527 3.08727364 55.83976309 4.49718581 62.375 7.375 C71.00969333 12.48532871 78.10293871 18.68854543 81.375 28.375 C81.6509478 30.30403132 81.85949903 32.2439032 82 34.1875 C82.11214844 35.65123047 82.11214844 35.65123047 82.2265625 37.14453125 C82.27554688 37.88058594 82.32453125 38.61664063 82.375 39.375 C87.02552872 39.64432521 87.02552872 39.64432521 91.375 38.375 C90.86032495 35.54428723 90.22446894 32.92340682 89.3125 30.1875 C87.34254958 22.17636827 87.72454805 15.94745556 91.73828125 8.64453125 C94.76642673 4.44559921 98.78182709 1.67158646 103.375 -0.625 C111.66101029 -1.33954815 117.61950603 -0.78302902 124.125 4.6875 C128.73336372 10.19193445 129.9384769 14.53550003 129.7265625 21.625 C128.86116556 28.39432719 125.35263476 32.95043577 120.375 37.375 C121.035 38.035 121.695 38.695 122.375 39.375 C126.19528917 39.1545987 128.92194021 38.61598925 132.3125 36.8125 C136.29963638 34.940987 139.00853057 35.14914813 143.375 35.375 C144.125 37.5 144.125 37.5 144.375 40.375 C141.3952121 46.21538429 137.38129229 49.09572669 131.4375 51.625 C125.71085598 53.02744343 121.1776901 52.39203599 115.5625 50.875 C106.76269519 48.57654352 99.86770207 48.86424719 91.2109375 51.62109375 C84.95056888 53.28535152 78.68750551 53.54219833 72.25 53.5 C71.52369385 53.49806641 70.7973877 53.49613281 70.04907227 53.49414062 C63.12879187 53.43984617 56.26994043 52.96361505 49.375 52.375 C49.39071045 53.11024902 49.4064209 53.84549805 49.42260742 54.60302734 C49.48557614 57.985271 49.52418566 61.36739072 49.5625 64.75 C49.58763672 65.90628906 49.61277344 67.06257813 49.63867188 68.25390625 C49.70935005 76.59393084 49.29621361 84.93423356 44.0625 91.8125 C39.98808222 95.69740998 36.47329658 97.51155802 30.875 98 C28.17351934 97.89994516 26.78080402 97.66486001 24.5703125 96.0859375 C16.54401058 87.34086228 16.17870903 76.09570824 16.1875 64.8125 C16.18685547 63.94786133 16.18621094 63.08322266 16.18554688 62.19238281 C16.24825354 54.45951051 17.08177547 46.99578741 18.375 39.375 C17.69695312 39.83390625 17.01890625 40.2928125 16.3203125 40.765625 C-0.99487808 52.18118001 -0.99487808 52.18118001 -11.625 50.375 C-17.19558063 48.77483321 -21.35701858 45.86795494 -25.875 42.3125 C-31.03888321 38.35376634 -35.57837931 37.1126473 -41.97265625 36.23828125 C-44.625 35.375 -44.625 35.375 -45.99609375 32.79296875 C-46.30740234 31.59607422 -46.30740234 31.59607422 -46.625 30.375 C-42.44498005 30.29303882 -38.70287895 30.48054296 -34.625 31.375 C-34.69460937 30.27542969 -34.76421875 29.17585938 -34.8359375 28.04296875 C-35.25378619 18.53368015 -34.90631956 11.12580258 -28.625 3.375 C-21.14607791 -2.96331428 -8.79969136 -3.94468923 0 0 Z " fill="#F8F8F8" transform="translate(136.625,127.625)"/>
<path d="M0 0 C3 0.125 3 0.125 4 1.125 C5.78535707 1.23463878 7.57467135 1.28090304 9.36328125 1.30078125 C10.47896484 1.32462891 11.59464844 1.34847656 12.74414062 1.37304688 C15.07990615 1.4152364 17.41589135 1.44689856 19.75195312 1.46679688 C33.9131755 1.81416285 44.64234347 6.1425852 54.9140625 15.953125 C61.31564364 22.95386891 62.64530438 29.23430308 62.40625 38.6171875 C61.45260838 46.85151612 57.4956972 52.56954765 51.09765625 57.6640625 C43.79507523 62.75003141 35.34994075 65.75761492 26.5 66.6875 C22.94792468 66.76778158 22.94792468 66.76778158 21 69.125 C20.78828694 71.17711983 20.78828694 71.17711983 20.9453125 73.52734375 C20.97286621 74.41276855 21.00041992 75.29819336 21.02880859 76.21044922 C21.06055176 77.15162598 21.09229492 78.09280273 21.125 79.0625 C21.28139708 89.01978094 20.46385767 96.93015622 14.25 105.0625 C8.79164894 110.6829803 3.82615201 112.36580052 -4 112.625 C-10.94815011 112.39487964 -15.58427922 111.28278305 -20.70703125 106.546875 C-29.64661395 96.88951558 -30.54367999 84.26570331 -30.25 71.69921875 C-29.27799522 49.04664738 -21.27497503 26.39997503 -5 10.125 C-4.79300437 8.63003158 -4.63320741 7.1283408 -4.5 5.625 C-4.0164108 0.16735045 -4.0164108 0.16735045 0 0 Z " fill="#F7F7F7" transform="translate(61,65.875)"/>
<path d="M0 0 C4.18999088 4.18999088 7.12707471 8.05842876 7.59375 14.171875 C6.82198472 21.94465394 1.60921052 27.67540068 -3.953125 32.68359375 C-5.87016333 34.37380328 -5.87016333 34.37380328 -6.625 37.375 C-0.08169826 37.34470694 3.64835895 36.02033007 8.55078125 31.65234375 C10.375 30.375 10.375 30.375 14.375 30.375 C15.365 30.87 15.365 30.87 16.375 31.375 C16.375 32.035 16.375 32.695 16.375 33.375 C17.014375 33.519375 17.65375 33.66375 18.3125 33.8125 C20.375 34.375 20.375 34.375 21.375 35.375 C21.51615161 38.04558851 21.41747107 40.69932238 21.375 43.375 C20.715 43.375 20.055 43.375 19.375 43.375 C19.045 45.025 18.715 46.675 18.375 48.375 C17.21558962 44.89676885 17.66679116 42.91604422 18.375 39.375 C17.69695312 39.83390625 17.01890625 40.2928125 16.3203125 40.765625 C-0.99487808 52.18118001 -0.99487808 52.18118001 -11.625 50.375 C-17.19558063 48.77483321 -21.35701858 45.86795494 -25.875 42.3125 C-31.03888321 38.35376634 -35.57837931 37.1126473 -41.97265625 36.23828125 C-44.625 35.375 -44.625 35.375 -45.99609375 32.79296875 C-46.30740234 31.59607422 -46.30740234 31.59607422 -46.625 30.375 C-42.44498005 30.29303882 -38.70287895 30.48054296 -34.625 31.375 C-34.69460937 30.27542969 -34.76421875 29.17585938 -34.8359375 28.04296875 C-35.25378619 18.53368015 -34.90631956 11.12580258 -28.625 3.375 C-21.14607791 -2.96331428 -8.79969136 -3.94468923 0 0 Z " fill="#F6F6F6" transform="translate(136.625,127.625)"/>
<path d="M0 0 C-0.28998689 17.58375032 -7.50746867 35.54010393 -19.8125 48.4375 C-24.39345092 52.43387482 -28.63278587 53.52949285 -34.65625 53.37890625 C-40.28674115 52.46864351 -44.01702204 49.26022816 -47.4375 44.875 C-49.72449218 40.6669344 -51.17933572 36.74316774 -50 32 C-41.14864373 16.57335049 -25.9259205 4.37788112 -9 -1 C-3.46900638 -2.31267092 -3.46900638 -2.31267092 0 0 Z " fill="#040404" transform="translate(342,167)"/>
<path d="M0 0 C3.11494066 1.74368297 3.94351883 2.84303338 5.17260742 6.25878906 C5.49964055 7.59055516 5.80962407 8.92658522 6.10546875 10.265625 C6.27500565 10.97724792 6.44454254 11.68887085 6.61921692 12.42205811 C7.15654677 14.69490661 7.67186347 16.97214372 8.1875 19.25 C8.54487065 20.76724648 8.90358088 22.2841781 9.26367188 23.80078125 C16.245678 53.5577796 16.245678 53.5577796 9.125 66.375 C8.42375 67.24125 7.7225 68.1075 7 69 C6.1028125 70.175625 6.1028125 70.175625 5.1875 71.375 C1.98602255 73.75324039 -0.10970491 73.54600633 -4 73 C-9.733559 69.86019388 -12.68686819 63.81078973 -14.7578125 57.80078125 C-17.29169337 47.86154433 -15.99296412 37.94527568 -13.875 28.0625 C-13.65199219 27.01288086 -13.42898437 25.96326172 -13.19921875 24.88183594 C-10.96450685 14.94601052 -8.51492508 6.27112726 0 0 Z " fill="#050505" transform="translate(57,96)"/>
<path d="M0 0 C9.61599054 0.22747505 17.63489444 3.91353842 24.453125 10.5078125 C27.67336117 14.11885403 27.58262991 17.54119462 27.52734375 22.234375 C26.24174841 30.74739288 19.72665837 37.35168203 13.32421875 42.65625 C7.93370171 46.6037098 2.8605437 49.04057825 -3.9375 49.3125 C-6.69033414 46.55966586 -6.72331351 44.24859777 -7.4453125 40.43359375 C-7.57565887 39.74749527 -7.70600525 39.06139679 -7.84030151 38.35450745 C-8.11469478 36.8984402 -8.38510692 35.44161798 -8.65185547 33.98413086 C-9.05686973 31.78063176 -9.47861704 29.58082669 -9.90234375 27.38085938 C-12.55242498 13.33914279 -12.55242498 13.33914279 -11.9375 6.3125 C-9.83731679 3.51225571 -8.27436003 1.89180601 -5.0625 0.5 C-3.37335218 0.35095754 -1.6861957 0.17938252 0 0 Z " fill="#050505" transform="translate(82.9375,74.6875)"/>
<path d="M0 0 C7.29864283 2.6164946 12.07300329 8.09600984 15.6875 14.8125 C21.59938081 27.99927858 24.33441248 45.99796709 20.3125 60.1875 C11.79478073 59.83259503 6.88905091 55.03555334 1.1875 49.0625 C-8.08376142 38.1851933 -11.26288525 25.92481517 -11.0078125 11.859375 C-10.43467775 7.07859244 -8.03113652 4.5759244 -4.8125 1.25 C-2.6875 0.1875 -2.6875 0.1875 0 0 Z " fill="#050505" transform="translate(322.6875,90.8125)"/>
<path d="M0 0 C7.79218313 3.63946278 14.05078025 9.62998863 17.9375 17.2734375 C18.64453125 19.3515625 18.64453125 19.3515625 18.08203125 22.2265625 C17.60765625 22.9278125 17.13328125 23.6290625 16.64453125 24.3515625 C15.98453125 25.3415625 15.32453125 26.3315625 14.64453125 27.3515625 C13.98453125 27.3515625 13.32453125 27.3515625 12.64453125 27.3515625 C12.64453125 28.0115625 12.64453125 28.6715625 12.64453125 29.3515625 C9.64453125 28.3515625 9.64453125 28.3515625 8.3203125 25.875 C7.87042969 24.83601563 7.42054688 23.79703125 6.95703125 22.7265625 C3.62040536 15.78008826 -0.19413503 10.9018633 -7.54296875 8.1640625 C-11.3274036 8.41635816 -12.73947569 9.66290297 -15.35546875 12.3515625 C-19.44583156 18.93604898 -17.66765455 27.77636646 -16.16796875 34.9765625 C-13.76485873 44.37564236 -9.44078595 51.86515852 -3.35546875 59.3515625 C-5.02734375 63.1875 -5.02734375 63.1875 -7.98046875 64.6640625 C-11.93330632 64.29805902 -12.53898272 63.69031974 -15.23046875 60.9140625 C-24.13607064 50.02182634 -29.710927 36.86299621 -29.73046875 22.8515625 C-29.75496094 21.92730469 -29.77945312 21.00304687 -29.8046875 20.05078125 C-29.8293838 14.29654429 -29.29530456 10.84931212 -25.35546875 6.3515625 C-23.28515625 4.48828125 -23.28515625 4.48828125 -21.23046875 3.0390625 C-20.20566406 2.30236328 -20.20566406 2.30236328 -19.16015625 1.55078125 C-13.7526872 -2.04249364 -6.13420122 -1.68868558 0 0 Z " fill="#F6F6F6" transform="translate(330.35546875,83.6484375)"/>
<path d="M0 0 C4.79489114 2.0099366 9.8552164 6.23387029 12.19921875 10.921875 C12.72054503 15.4400361 12.55189299 17.38782543 10.01171875 21.234375 C6.38075559 24.70396202 4.26418246 25.8779396 -0.73828125 25.984375 C-5.04730506 24.48940756 -7.37931256 21.73154723 -9.80078125 17.921875 C-11.19549325 13.69547499 -11.47172112 9.31419064 -10.80078125 4.921875 C-7.95020396 0.46784798 -5.35372667 -1.01975746 0 0 Z " fill="#060606" transform="translate(190.80078125,144.078125)"/>
<path d="M0 0 C0.598125 0.226875 1.19625 0.45375 1.8125 0.6875 C5.10645492 12.31437658 6.95139951 24.41277915 2.76171875 36.05078125 C1.8125 37.6875 1.8125 37.6875 -1.1875 39.6875 C-3.1875 39.6875 -3.1875 39.6875 -5.1875 38.6875 C-8.09776156 34.0381797 -8.66682645 29.99506655 -8.5625 24.625 C-8.55452393 23.88491699 -8.54654785 23.14483398 -8.53833008 22.38232422 C-8.3570755 15.27439148 -8.05112741 6.73123899 -3.83203125 0.7734375 C-2.1875 -0.3125 -2.1875 -0.3125 0 0 Z " fill="#0A0A0A" transform="translate(171.1875,173.3125)"/>
<path d="M0 0 C12.65384615 0 12.65384615 0 17.8125 4.625 C19.674202 8.34840399 19.53999159 11.92087432 19 16 C17.20306657 20.13294688 15.74425978 21.19180517 12 24 C8.04 24 4.08 24 0 24 C0 16.08 0 8.16 0 0 Z " fill="#F9F9F9" transform="translate(326,253)"/>
<path d="M0 0 C3.63858142 2.74750026 4.72909447 4.20097688 5.40234375 8.671875 C5.57565189 13.80179606 5.51121642 17.96860337 2 22 C-1.66908557 24.44605705 -4.73618769 24.83946402 -9 24 C-12.27939423 21.34857488 -14.76648446 19.1284367 -15.23828125 14.828125 C-15.4108458 8.83377737 -14.98075605 5.56616135 -11 1 C-7.48626113 -0.75686944 -3.82561263 -0.65958838 0 0 Z " fill="#EAEAEA" transform="translate(256,253)"/>
<path d="M0 0 C3.28175318 2.52968474 4.69243777 4.07731331 6 8 C6.43315845 13.6310599 5.59184754 17.10428798 3 22 C-1.00633751 24.67089167 -4.28991428 24.70693873 -9 24 C-12.03215675 21.80168636 -12.81654398 20.55036806 -14 17 C-14.11880354 15.1903182 -14.1751965 13.37603553 -14.1875 11.5625 C-14.20167969 10.61503906 -14.21585937 9.66757812 -14.23046875 8.69140625 C-13.99065855 5.89091084 -13.54215169 4.33115953 -12 2 C-7.99298306 -0.67134463 -4.71123704 -0.82653281 0 0 Z " fill="#F1F1F1" transform="translate(381,253)"/>
<path d="M0 0 C2.31 0 4.62 0 7 0 C8.98 3.63 10.96 7.26 13 11 C13.33 7.37 13.66 3.74 14 0 C15.65 0 17.3 0 19 0 C19 7.92 19 15.84 19 24 C17.35 24 15.7 24 14 24 C12.26953125 21.91796875 12.26953125 21.91796875 10.8125 19.1875 C10.32394531 18.29417969 9.83539063 17.40085937 9.33203125 16.48046875 C8.89246094 15.66191406 8.45289063 14.84335937 8 14 C7.34 13.01 6.68 12.02 6 11 C5.67 15.29 5.34 19.58 5 24 C3.35 24 1.7 24 0 24 C0 16.08 0 8.16 0 0 Z " fill="#D6D6D6" transform="translate(409,253)"/>
<path d="M0 0 C1.98 0 3.96 0 6 0 C8.1171875 2.625 8.1171875 2.625 9.875 6 C10.47054688 7.11375 11.06609375 8.2275 11.6796875 9.375 C12.33324219 10.674375 12.33324219 10.674375 13 12 C13.33 8.04 13.66 4.08 14 0 C15.32 0 16.64 0 18 0 C18 7.92 18 15.84 18 24 C16.35 24 14.7 24 13 24 C9.04 17.07 9.04 17.07 5 10 C4.67 14.62 4.34 19.24 4 24 C2.68 24 1.36 24 0 24 C0 16.08 0 8.16 0 0 Z " fill="#F6F6F6" transform="translate(284,253)"/>
<path d="M0 0 C2.75329021 1.79562405 4.52627461 3.05254922 6 6 C6.49267057 10.35192338 6.51752429 12.29982008 3.875 15.875 C0.67084273 18.24329016 -1.02790584 19 -5 19 C-8.60267091 17.40812216 -11.22301044 15.55397912 -13 12 C-13 7.70025859 -12.40344561 5.55770422 -9.875 2.0625 C-6.22050654 -0.55920183 -4.41207383 -0.70908329 0 0 Z " fill="#181818" transform="translate(607,177)"/>
<path d="M0 0 C1.875 1.5 1.875 1.5 3 4 C3.71178319 11.23646242 2.21881458 16.19728684 -2.375 22 C-5 24 -5 24 -7.6875 24 C-10 23 -10 23 -12 20 C-12.97404066 12.76426938 -11.77797212 7.10081599 -7.6875 1.0625 C-5.01962939 -0.61727038 -3.06531371 -0.44702492 0 0 Z " fill="#0A0A0A" transform="translate(252,136)"/>
<path d="M0 0 C3.89807322 3.50826589 5.79321363 6.49753441 6.23046875 11.7890625 C6.20919922 13.19285156 6.20919922 13.19285156 6.1875 14.625 C6.18105469 15.56601563 6.17460938 16.50703125 6.16796875 17.4765625 C6 20 6 20 5 23 C-0.28 22.67 -5.56 22.34 -11 22 C-8.81513036 13.26052142 -6.36249008 6.50709213 0 0 Z " fill="#0B0B0B" transform="translate(568,135)"/>
<path d="M0 0 C2.95934043 0.20409244 4.07692296 1.06860696 6.3125 3.0625 C8.16927285 6.29466014 8.35965433 8.21453741 7.6796875 11.87109375 C6.25239035 16.34165091 4.03480329 20.63241327 0.08203125 23.2890625 C-2.37422052 24.12778262 -3.59014776 23.86066152 -6 23 C-6.13548815 20.26916098 -6.23429855 17.54508193 -6.3125 14.8125 C-6.35439453 14.04357422 -6.39628906 13.27464844 -6.43945312 12.48242188 C-6.53364993 8.09285063 -6.44164813 6.53713962 -3.54296875 3.01171875 C-2.70378906 2.34785156 -1.86460938 1.68398437 -1 1 C-0.67 0.67 -0.34 0.34 0 0 Z " fill="#070707" transform="translate(123,133)"/>
<path d="M0 0 C0.99 0.66 1.98 1.32 3 2 C3.52969352 6.01053669 3.44887444 8.24036632 1.375 11.75 C-2.05121055 14.99588368 -5.11136875 16.8768284 -9.875 17.1875 C-10.926875 17.0946875 -10.926875 17.0946875 -12 17 C-13.1015625 15.28125 -13.1015625 15.28125 -14 13 C-12.17370915 5.48309272 -8.40492416 -1.07296904 0 0 Z " fill="#080808" transform="translate(392,131)"/>
<path d="M0 0 C1.65 0 3.3 0 5 0 C5 6.27 5 12.54 5 19 C8.3 19 11.6 19 15 19 C15 20.65 15 22.3 15 24 C10.05 24 5.1 24 0 24 C0 16.08 0 8.16 0 0 Z " fill="#F3F3F3" transform="translate(206,253)"/>
<path d="M0 0 C2.16015625 0.546875 2.16015625 0.546875 5.22265625 3.109375 C7.3988346 6.97033659 7.59610635 9.18737396 7.16015625 13.546875 C5.51015625 13.876875 3.86015625 14.206875 2.16015625 14.546875 C1.50015625 11.906875 0.84015625 9.266875 0.16015625 6.546875 C-1.48984375 6.216875 -3.13984375 5.886875 -4.83984375 5.546875 C-5.82984375 7.856875 -6.81984375 10.166875 -7.83984375 12.546875 C-8.49984375 12.546875 -9.15984375 12.546875 -9.83984375 12.546875 C-10.16984375 13.206875 -10.49984375 13.866875 -10.83984375 14.546875 C-12.40919969 11.40816312 -12.19185478 9.00831678 -11.83984375 5.546875 C-8.66349105 0.73111445 -5.5367411 -0.33275906 0 0 Z " fill="#F2F2F2" transform="translate(253.83984375,252.453125)"/>
<path d="M0 0 C0.75 1.75 0.75 1.75 1 4 C-0.75 6.0625 -0.75 6.0625 -3 8 C-3.5775 8.5775 -4.155 9.155 -4.75 9.75 C-5.1625 10.1625 -5.575 10.575 -6 11 C-5.21625 10.95875 -4.4325 10.9175 -3.625 10.875 C-1 11 -1 11 1 13 C1.66 11.68 2.32 10.36 3 9 C4.32 9.33 5.64 9.66 7 10 C5.50596234 14.48211297 2.02598857 16.85817408 -2 19 C-4.40518406 19.6432469 -6.49651886 19.84672564 -9 20 C-10.20628008 17.66785852 -11.1654738 15.50357861 -12 13 C-11.01 13 -10.02 13 -9 13 C-8.7525 12.278125 -8.505 11.55625 -8.25 10.8125 C-6.33375867 6.50095701 -3.39889076 3.22894622 0 0 Z " fill="#F6F6F6" transform="translate(69,158)"/>
<path d="M0 0 C1.32 0 2.64 0 4 0 C4 7.92 4 15.84 4 24 C2.35 24 0.7 24 -1 24 C-3.375 21.1875 -3.375 21.1875 -5 18 C-4.505 16.515 -4.505 16.515 -4 15 C-2.68 14.67 -1.36 14.34 0 14 C0 9.38 0 4.76 0 0 Z " fill="#F0F0F0" transform="translate(424,253)"/>
<path d="M0 0 C2.5625 0.25 2.5625 0.25 5 1 C6.22691067 3.45382134 6.20175931 5.19984103 6.25 7.9375 C6.28867187 9.25041016 6.28867187 9.25041016 6.328125 10.58984375 C6 13 6 13 4.6171875 14.83203125 C3 16 3 16 0.875 15.75 C-1 15 -1 15 -2 14 C-2.12514928 12.02380553 -2.1757276 10.04261827 -2.1875 8.0625 C-2.20167969 6.98097656 -2.21585937 5.89945312 -2.23046875 4.78515625 C-2 2 -2 2 0 0 Z " fill="#0F0F0F" transform="translate(375,257)"/>
<path d="M0 0 C4.875 0.875 4.875 0.875 6 2 C6.12514928 3.97619447 6.1757276 5.95738173 6.1875 7.9375 C6.20167969 9.01902344 6.21585938 10.10054688 6.23046875 11.21484375 C6 14 6 14 4 16 C2 15.8125 2 15.8125 0 15 C-2.08133467 11.877998 -2.2737822 11.06733011 -2.25 7.5 C-2.25773438 6.33984375 -2.25773438 6.33984375 -2.265625 5.15625 C-2 3 -2 3 0 0 Z " fill="#0E0E0E" transform="translate(249,257)"/>
<path d="M0 0 C6 1 6 1 8 3 C8.265625 5.05859375 8.265625 5.05859375 8.25 7.4375 C8.25515625 8.21996094 8.2603125 9.00242187 8.265625 9.80859375 C8 12 8 12 6 15 C4.02 15 2.04 15 0 15 C0 10.05 0 5.1 0 0 Z " fill="#0F0F0F" transform="translate(331,257)"/>
<path d="M0 0 C0.66 0 1.32 0 2 0 C2.56862745 9.66666667 2.56862745 9.66666667 -1 14 C-3.42490876 16.28712986 -4.65022998 16.96601975 -8.015625 17.29296875 C-9.08296875 17.25816406 -10.1503125 17.22335937 -11.25 17.1875 C-12.86648438 17.14689453 -12.86648438 17.14689453 -14.515625 17.10546875 C-15.74539063 17.05326172 -15.74539063 17.05326172 -17 17 C-17 16.67 -17 16.34 -17 16 C-15.865625 15.855625 -14.73125 15.71125 -13.5625 15.5625 C-10.19222799 15.38828522 -10.19222799 15.38828522 -9 14 C-9.99 13.34 -10.98 12.68 -12 12 C-10.02 11.67 -8.04 11.34 -6 11 C-5.34 8.03 -4.68 5.06 -4 2 C-3.01 2 -2.02 2 -1 2 C-0.67 1.34 -0.34 0.68 0 0 Z " fill="#EBEBEB" transform="translate(343,260)"/>
<path d="M0 0 C2.75329021 1.79562405 4.52627461 3.05254922 6 6 C6.49267057 10.35192338 6.51752429 12.29982008 3.875 15.875 C0.67084273 18.24329016 -1.02790584 19 -5 19 C-8.60267091 17.40812216 -11.22301044 15.55397912 -13 12 C-13 7.70025859 -12.40344561 5.55770422 -9.875 2.0625 C-6.22050654 -0.55920183 -4.41207383 -0.70908329 0 0 Z M-9.5 4.0625 C-11.46601181 7.91260646 -11.21718491 9.89200092 -10 14 C-8.5 16.16666667 -8.5 16.16666667 -6 17 C-2.57664374 16.87988224 -0.04583931 16.60726153 2.9375 14.875 C4.6712306 11.81547541 4.42145216 9.43182475 4 6 C2.58333333 3.41666667 2.58333333 3.41666667 0 2 C-4.27465946 1.31300116 -6.12040166 1.27433137 -9.5 4.0625 Z " fill="#D9D9D9" transform="translate(607,177)"/>
<path d="M0 0 C0.33 0 0.66 0 1 0 C1 4.62 1 9.24 1 14 C0.34 14 -0.32 14 -1 14 C-1.33 14.66 -1.66 15.32 -2 16 C-2.99 16 -3.98 16 -5 16 C-5.99 14.35 -6.98 12.7 -8 11 C-8.33 15.29 -8.66 19.58 -9 24 C-9.33 24 -9.66 24 -10 24 C-10.08071788 21.20775927 -10.14035408 18.41783434 -10.1875 15.625 C-10.21263672 14.8309375 -10.23777344 14.036875 -10.26367188 13.21875 C-10.29004405 11.14413852 -10.15486462 9.06899135 -10 7 C-7 5 -7 5 -4 5 C-3.01 6.98 -2.02 8.96 -1 11 C-0.67 7.37 -0.34 3.74 0 0 Z " fill="#D5D5D5" transform="translate(423,253)"/>
<path d="M0 0 C2.31 0 4.62 0 7 0 C8.03946852 3.7680734 8 7.07749916 8 11 C7.34 11 6.68 11 6 11 C5.67 9.35 5.34 7.7 5 6 C4.01 6 3.02 6 2 6 C2 7.65 2 9.3 2 11 C1.34 11 0.68 11 0 11 C0 7.37 0 3.74 0 0 Z " fill="#9C9C9C" transform="translate(600,181)"/>
<path d="M0 0 C0.99 0 1.98 0 3 0 C3.05416188 1.60379341 3.09286638 3.20811406 3.125 4.8125 C3.14820313 5.70582031 3.17140625 6.59914063 3.1953125 7.51953125 C3 10 3 10 1 13 C0.01 12.67 -0.98 12.34 -2 12 C-2.83859288 8.11197844 -3.3306491 5.77702538 -1.75 2.0625 C-0.88375 1.0415625 -0.88375 1.0415625 0 0 Z " fill="#E7E7E7" transform="translate(370,261)"/>
<path d="M0 0 C1.32 0 2.64 0 4 0 C4 4.95 4 9.9 4 15 C3.01 15 2.02 15 1 15 C-0.09506492 11.71480525 -0.09960608 9.26336585 -0.0625 5.8125 C-0.05347656 4.72582031 -0.04445313 3.63914062 -0.03515625 2.51953125 C-0.02355469 1.68808594 -0.01195312 0.85664063 0 0 Z " fill="#FBFBFB" transform="translate(298,253)"/>
<path d="M0 0 C0.103125 0.639375 0.20625 1.27875 0.3125 1.9375 C0.539375 2.618125 0.76625 3.29875 1 4 C1.99 4.33 2.98 4.66 4 5 C4 5.99 4 6.98 4 8 C4.66 8 5.32 8 6 8 C6 6.35 6 4.7 6 3 C6.99 3 7.98 3 9 3 C9.12375 3.804375 9.2475 4.60875 9.375 5.4375 C9.58125 6.283125 9.7875 7.12875 10 8 C10.66 8.33 11.32 8.66 12 9 C8.8125 9.8125 8.8125 9.8125 5 10 C2.0625 7.875 2.0625 7.875 0 5 C-0.3125 2.1875 -0.3125 2.1875 0 0 Z " fill="#191919" transform="translate(596,184)"/>
<path d="M0 0 C2.74277578 3.19990508 4.6302836 6.00499382 6 10 C4.68 11.32 3.36 12.64 2 14 C0.09391902 10.78817851 -0.22266247 8.46117397 -0.125 4.75 C-0.09792969 3.41195313 -0.09792969 3.41195313 -0.0703125 2.046875 C-0.04710937 1.37140625 -0.02390625 0.6959375 0 0 Z " fill="#0C0C0C" transform="translate(414,262)"/>
<path d="M0 0 C0.66 0.33 1.32 0.66 2 1 C1.67 4.63 1.34 8.26 1 12 C-0.32 12.33 -1.64 12.66 -3 13 C-3 12.01 -3 11.02 -3 10 C-3.061875 9.21625 -3.12375 8.4325 -3.1875 7.625 C-2.95737956 4.40331391 -1.80587217 2.63356358 0 0 Z " fill="#FAFAFA" transform="translate(384,261)"/>
<path d="M0 0 C0.99 0.33 1.98 0.66 3 1 C3 5.29 3 9.58 3 14 C2.01 14 1.02 14 0 14 C0 9.38 0 4.76 0 0 Z " fill="#F9F9F9" transform="translate(410,263)"/>
<path d="M0 0 C2.75042234 2.75042234 2.97718894 4.58179722 3.1875 8.4375 C3.01604909 11.69506736 2.72122938 13.3105791 1 16 C0.04975021 12.30458414 0.04975021 9.69541586 1 6 C-0.32 7.32 -1.64 8.64 -3 10 C-3 8.02 -3 6.04 -3 4 C-2.34 4 -1.68 4 -1 4 C-0.67 2.68 -0.34 1.36 0 0 Z " fill="#EAEAEA" transform="translate(384,256)"/>
<path d="M0 0 C2.09219926 2.78959901 3.57568513 4.93224489 5 8 C4.01 8.33 3.02 8.66 2 9 C1.67 11.31 1.34 13.62 1 16 C0.67 16 0.34 16 0 16 C0 10.72 0 5.44 0 0 Z " fill="#141414" transform="translate(288,261)"/>
<path d="M0 0 C2.31 0 4.62 0 7 0 C7.33 1.32 7.66 2.64 8 4 C7.01 4.33 6.02 4.66 5 5 C5 4.01 5 3.02 5 2 C4.01 1.67 3.02 1.34 2 1 C1.67 3.97 1.34 6.94 1 10 C0.67 10 0.34 10 0 10 C0 6.7 0 3.4 0 0 Z " fill="#E6E6E6" transform="translate(600,181)"/>
<path d="M0 0 C0.75 1.75 0.75 1.75 1 4 C-0.85055798 6.23343204 -2.40383083 7.70191542 -5 9 C-5.66 9.99 -6.32 10.98 -7 12 C-7.33 11.01 -7.66 10.02 -8 9 C-5.55827541 5.74436722 -2.95550066 2.79994799 0 0 Z " fill="#ECECEC" transform="translate(69,158)"/>
<path d="M0 0 C0.66 0.33 1.32 0.66 2 1 C1.01 1.66 0.02 2.32 -1 3 C-0.01 3.99 0.98 4.98 2 6 C1.38125 6.103125 0.7625 6.20625 0.125 6.3125 C-2.36526484 6.87525373 -2.36526484 6.87525373 -4 10 C-4.66 9.67 -5.32 9.34 -6 9 C-4.68775452 5.06326356 -3.08089673 2.77280706 0 0 Z " fill="#F0F0F0" transform="translate(557,133)"/>
<path d="M0 0 C0.66 0 1.32 0 2 0 C2 0.66 2 1.32 2 2 C2.99 2 3.98 2 5 2 C5.33 3.65 5.66 5.3 6 7 C4.35 7.33 2.7 7.66 1 8 C0.67 5.36 0.34 2.72 0 0 Z " fill="#FBFBFB" transform="translate(255,259)"/>
<path d="M0 0 C0 0.99 0 1.98 0 3 C-0.99 3.495 -0.99 3.495 -2 4 C-2.65213292 6.02463255 -2.65213292 6.02463255 -3 8 C-3.66 8 -4.32 8 -5 8 C-5.33 8.66 -5.66 9.32 -6 10 C-8.0625 10.625 -8.0625 10.625 -10 11 C-9.09066991 9.72390677 -8.17217147 8.45434447 -7.25 7.1875 C-6.73953125 6.47980469 -6.2290625 5.77210938 -5.703125 5.04296875 C-3.97517642 2.97022309 -2.21473524 1.52624146 0 0 Z " fill="#1E1E1E" transform="translate(588,167)"/>
<path d="M0 0 C0.99 0.66 1.98 1.32 3 2 C0.69 4.64 -1.62 7.28 -4 10 C-5 6 -5 6 -4 4 C-3.01 4 -2.02 4 -1 4 C-0.67 2.68 -0.34 1.36 0 0 Z " fill="#E1E1E1" transform="translate(336,214)"/>
<path d="M0 0 C2.64 0 5.28 0 8 0 C7.67 1.32 7.34 2.64 7 4 C4.36 3.67 1.72 3.34 -1 3 C-0.67 2.01 -0.34 1.02 0 0 Z " fill="#FBFBFB" transform="translate(212,273)"/>
<path d="M0 0 C0.66 0.33 1.32 0.66 2 1 C1.67 2.65 1.34 4.3 1 6 C0.01 6 -0.98 6 -2 6 C-2.66 7.65 -3.32 9.3 -4 11 C-4.33 11 -4.66 11 -5 11 C-5.25 8.6875 -5.25 8.6875 -5 6 C-3.0625 4.375 -3.0625 4.375 -1 3 C-0.67 2.01 -0.34 1.02 0 0 Z " fill="#FBFBFB" transform="translate(372,255)"/>
<path d="M0 0 C0.99 0.33 1.98 0.66 3 1 C2.67 2.65 2.34 4.3 2 6 C2.66 6.33 3.32 6.66 4 7 C3.67 7.99 3.34 8.98 3 10 C0.4375 11.1875 0.4375 11.1875 -2 12 C-1.505 11.2575 -1.505 11.2575 -1 10.5 C0.43636358 6.90909106 0.12851462 3.85543873 0 0 Z " fill="#090909" transform="translate(612,182)"/>
<path d="M0 0 C0.99 0.33 1.98 0.66 3 1 C-0.59258142 3.89158993 -2.17748885 5.05306524 -6.875 4.75 C-7.90625 4.5025 -8.9375 4.255 -10 4 C-7.24072656 1.24072656 -4.78845948 1.48216757 -1 1 C-0.67 0.67 -0.34 0.34 0 0 Z " fill="#C8C8C8" transform="translate(609,191)"/>
<path d="M0 0 C0.66 0.33 1.32 0.66 2 1 C1.67 2.65 1.34 4.3 1 6 C0.34 6 -0.32 6 -1 6 C-1.33 6.66 -1.66 7.32 -2 8 C-2.6875 5.6875 -2.6875 5.6875 -3 3 C-1.5625 1.1875 -1.5625 1.1875 0 0 Z " fill="#FBFBFB" transform="translate(245,259)"/>
<path d="M0 0 C2.0625 0.4375 2.0625 0.4375 4 1 C2.95125002 3.62187494 2.35068687 4.79371361 -0.125 6.25 C-0.74375 6.4975 -1.3625 6.745 -2 7 C-1.125 1.125 -1.125 1.125 0 0 Z " fill="#E5E5E5" transform="translate(72,167)"/>
<path d="M0 0 C-1.26418246 0.69965443 -2.53665402 1.38434763 -3.8125 2.0625 C-4.52019531 2.44535156 -5.22789062 2.82820312 -5.95703125 3.22265625 C-8 4 -8 4 -11 3 C-7.56065558 -0.95524608 -4.91824601 -1.35534128 0 0 Z " fill="#292929" transform="translate(440,145)"/>
<path d="M0 0 C2.9375 0.25 2.9375 0.25 6 1 C6.66 1.99 7.32 2.98 8 4 C7.01 4.495 7.01 4.495 6 5 C6 4.34 6 3.68 6 3 C5.34 3 4.68 3 4 3 C3.67 3.66 3.34 4.32 3 5 C1.68 3.68 0.36 2.36 -1 1 C-0.67 0.67 -0.34 0.34 0 0 Z " fill="#0D0D0D" transform="translate(206,138)"/>
<path d="M0 0 C0.33 0 0.66 0 1 0 C1 2.97 1 5.94 1 9 C0.01 8.67 -0.98 8.34 -2 8 C-2.125 5.125 -2.125 5.125 -2 2 C-1.34 1.34 -0.68 0.68 0 0 Z " fill="#040404" transform="translate(599,180)"/>
<path d="M0 0 C0.99 0 1.98 0 3 0 C3 1.98 3 3.96 3 6 C2.34 6 1.68 6 1 6 C0.67 7.65 0.34 9.3 0 11 C-1.35015859 6.94952424 -0.62084998 4.2079832 0 0 Z " fill="#E3E3E3" transform="translate(155,165)"/>
<path d="M0 0 C0 3.13751221 -0.35179805 4.39757586 -2 7 C-2.99 7.33 -3.98 7.66 -5 8 C-5.66 8.66 -6.32 9.32 -7 10 C-6.42424336 6.64749299 -5.40693737 5.06181371 -2.9375 2.75 C-2.38964844 2.22921875 -1.84179688 1.7084375 -1.27734375 1.171875 C-0.64505859 0.59179688 -0.64505859 0.59179688 0 0 Z " fill="#ECECEC" transform="translate(501,134)"/>
<path d="M0 0 C0.33 0.66 0.66 1.32 1 2 C-0.25 4.5625 -0.25 4.5625 -2 7 C-2.99 7.33 -3.98 7.66 -5 8 C-3.375 2.25 -3.375 2.25 0 0 Z " fill="#E7E7E7" transform="translate(372,253)"/>
<path d="M0 0 C0.66 0.33 1.32 0.66 2 1 C-0.11693724 3.43055758 -1.53521326 4.84507109 -4.625 5.875 C-5.40875 5.91625 -6.1925 5.9575 -7 6 C-7.66 5.34 -8.32 4.68 -9 4 C-7.54618103 3.30300448 -6.08677047 2.61766134 -4.625 1.9375 C-3.40683594 1.36322266 -3.40683594 1.36322266 -2.1640625 0.77734375 C-1.44992187 0.52082031 -0.73578125 0.26429688 0 0 Z " fill="#EBEBEB" transform="translate(389,145)"/>
<path d="M0 0 C0.66 0.33 1.32 0.66 2 1 C1.1875 3.4375 1.1875 3.4375 0 6 C-0.99 6.33 -1.98 6.66 -3 7 C-3.33 6.34 -3.66 5.68 -4 5 C-2.68 3.35 -1.36 1.7 0 0 Z " fill="#E6E6E6" transform="translate(110,129)"/>
<path d="M0 0 C1.98 0.99 3.96 1.98 6 3 C5.01 3.66 4.02 4.32 3 5 C0.3125 4.125 0.3125 4.125 -2 3 C-1.34 2.01 -0.68 1.02 0 0 Z " fill="#121212" transform="translate(112,171)"/>
<path d="M0 0 C-0.99 1.485 -0.99 1.485 -2 3 C-4.625 3.1875 -4.625 3.1875 -7 3 C-7 2.01 -7 1.02 -7 0 C-4.3333581 -1.33332095 -2.83319697 -0.67102033 0 0 Z " fill="#EEEEEE" transform="translate(500,169)"/>
<path d="M0 0 C0.99 0.66 1.98 1.32 3 2 C3 2.99 3 3.98 3 5 C2.01 5 1.02 5 0 5 C-0.66 3.68 -1.32 2.36 -2 1 C-1.34 0.67 -0.68 0.34 0 0 Z " fill="#101010" transform="translate(492,136)"/>
<path d="M0 0 C0.99 0.33 1.98 0.66 3 1 C2.360625 1.556875 1.72125 2.11375 1.0625 2.6875 C-1.19680987 5.22066561 -1.63149047 6.68341424 -2 10 C-2.33 10 -2.66 10 -3 10 C-3.36923077 3.47692308 -3.36923077 3.47692308 -1.5 1.0625 C-1.005 0.711875 -0.51 0.36125 0 0 Z " fill="#2F2F2F" transform="translate(295,196)"/>
<path d="M0 0 C0.625 1.875 0.625 1.875 1 4 C0.34 4.66 -0.32 5.32 -1 6 C-1.66 5.67 -2.32 5.34 -3 5 C-3.625 2.9375 -3.625 2.9375 -4 1 C-2.68 0.67 -1.36 0.34 0 0 Z " fill="#E6E6E6" transform="translate(502,161)"/>
<path d="M0 0 C0.66 0.33 1.32 0.66 2 1 C-0.36595933 3.61500768 -2.86049226 5.38999603 -6 7 C-6.66 6.67 -7.32 6.34 -8 6 C-5.36 4.02 -2.72 2.04 0 0 Z " fill="#E2E2E2" transform="translate(238,128)"/>
<path d="M0 0 C1.32 0.33 2.64 0.66 4 1 C3.34 2.65 2.68 4.3 2 6 C1.34 6 0.68 6 0 6 C0 4.02 0 2.04 0 0 Z " fill="#FCFCFC" transform="translate(410,253)"/>
<path d="M0 0 C0.66 0 1.32 0 2 0 C2.93423645 3.01031744 3.04449911 3.86650268 2 7 C1.01 7.33 0.02 7.66 -1 8 C-1.66 7.34 -2.32 6.68 -3 6 C-2.505 5.566875 -2.01 5.13375 -1.5 4.6875 C0.33218192 3.00259517 0.33218192 3.00259517 0 0 Z " fill="#0E0E0E" transform="translate(76,168)"/>
<path d="M0 0 C0.99 0.66 1.98 1.32 3 2 C2.67 2.99 2.34 3.98 2 5 C0.35 5.33 -1.3 5.66 -3 6 C-2.34 5.67 -1.68 5.34 -1 5 C-0.34444881 2.47266765 -0.34444881 2.47266765 0 0 Z " fill="#E2E2E2" transform="translate(601,160)"/>
<path d="M0 0 C0.99 0.66 1.98 1.32 3 2 C2.67 2.99 2.34 3.98 2 5 C1.01 5.33 0.02 5.66 -1 6 C-1.33 4.35 -1.66 2.7 -2 1 C-1.34 0.67 -0.68 0.34 0 0 Z " fill="#0E0E0E" transform="translate(91,162)"/>
<path d="M0 0 C0.66 0.33 1.32 0.66 2 1 C1.34 2.65 0.68 4.3 0 6 C-0.99 6 -1.98 6 -3 6 C-2.42655063 3.13275314 -2.1385485 2.1385485 0 0 Z " fill="#0A0A0A" transform="translate(133,159)"/>
<path d="M0 0 C2 2 2 2 2 6 C0.35 6 -1.3 6 -3 6 C-2.01 4.02 -1.02 2.04 0 0 Z " fill="#0E0E0E" transform="translate(341,145)"/>
<path d="M0 0 C0.66 0.33 1.32 0.66 2 1 C2 1.66 2 2.32 2 3 C1.34 3 0.68 3 0 3 C-0.33 3.99 -0.66 4.98 -1 6 C-1.99 5.67 -2.98 5.34 -4 5 C-2.68 3.35 -1.36 1.7 0 0 Z " fill="#E1E1E1" transform="translate(374,130)"/>
<path d="M0 0 C1.98 0.495 1.98 0.495 4 1 C3.34 1.66 2.68 2.32 2 3 C1.01 2.67 0.02 2.34 -1 2 C-0.67 1.34 -0.34 0.68 0 0 Z M-3 2 C-2.34 2.33 -1.68 2.66 -1 3 C-2.32 3.99 -3.64 4.98 -5 6 C-4.34 4.68 -3.68 3.36 -3 2 Z " fill="#1C1C1C" transform="translate(123,133)"/>
</svg>
