<svg width="180" height="64" viewBox="0 0 180 64" fill="none" xmlns="http://www.w3.org/2000/svg" role="img" aria-labelledby="sample-logo-04-title">
  <title id="sample-logo-04-title">Sample logo 04</title>
  <path d="M18 32C18 22.1 25.1 15 35.3 15C43.6 15 49.9 19.7 51.8 27H43.2C41.8 24 39.1 22.4 35.4 22.4C30.2 22.4 26.6 26.4 26.6 32C26.6 37.6 30.2 41.6 35.4 41.6C39.1 41.6 41.8 40 43.2 37H51.8C49.9 44.3 43.6 49 35.3 49C25.1 49 18 41.9 18 32Z" fill="#191919"/>
  <path d="M64 16H75.3L88.1 36.8L100.9 16H112.2V48H104V28.4L92.2 48H84L72.2 28.4V48H64V16Z" fill="#191919"/>
  <path d="M125 16H133.5V40.8H162V48H125V16Z" fill="#191919"/>
</svg>
